<svg width="64" height="64" viewBox="0 0 64 64" fill="none" xmlns="http://www.w3.org/2000/svg">
<path d="M17.2939 34.5619C17.7411 34.4226 18.2253 34.4656 18.6409 34.6817C19.0565 34.8978 19.3698 35.2695 19.5125 35.7156C20.351 38.2795 21.9858 40.5089 24.1788 42.0794C26.3719 43.65 29.0089 44.4799 31.7062 44.4482C35.0425 44.4862 38.2576 43.1995 40.6465 40.8704C43.0355 38.5413 44.4034 35.3599 44.4502 32.0238C44.4034 28.6877 43.0355 25.5063 40.6465 23.1772C38.2576 20.8481 35.0425 19.5614 31.7062 19.5993C28.6932 19.5921 25.7728 20.6409 23.4528 22.5635L27.3044 21.9245C27.5352 21.8865 27.7713 21.8945 27.999 21.9481C28.2268 22.0017 28.4416 22.0997 28.6313 22.2366C28.821 22.3735 28.9818 22.5466 29.1044 22.7459C29.2269 22.9451 29.3089 23.1666 29.3456 23.3977C29.3836 23.6285 29.3755 23.8646 29.322 24.0923C29.2684 24.32 29.1703 24.5349 29.0334 24.7246C28.8965 24.9143 28.7235 25.075 28.5242 25.1976C28.325 25.3202 28.1034 25.4022 27.8724 25.4388L20.3467 26.6813H20.045C19.8392 26.681 19.635 26.645 19.4415 26.5748C19.3765 26.5501 19.3164 26.514 19.264 26.4683C19.1368 26.421 19.0172 26.3552 18.909 26.2731L18.7493 26.0778C18.7493 25.9891 18.5896 25.9181 18.5186 25.8116C18.4476 25.7051 18.5186 25.6341 18.4298 25.5631C18.3808 25.4597 18.3392 25.3529 18.3056 25.2436L16.9744 18.1439C16.9301 17.9108 16.9321 17.6713 16.9804 17.439C17.0287 17.2067 17.1223 16.9862 17.2558 16.7901C17.3893 16.5939 17.5601 16.426 17.7585 16.2959C17.9569 16.1658 18.179 16.076 18.4121 16.0318C18.6451 15.9875 18.8847 15.9895 19.117 16.0378C19.3493 16.0861 19.5698 16.1797 19.7659 16.3132C20.162 16.5828 20.4348 16.9987 20.5242 17.4694L21.0034 20.0431C23.9747 17.4681 27.7745 16.0503 31.7062 16.0495C35.9839 16.0116 40.1019 17.6723 43.1566 20.6671C46.2113 23.6619 47.9532 27.7462 48 32.0238C47.9532 36.3014 46.2113 40.3857 43.1566 43.3805C40.1019 46.3753 35.9839 48.0359 31.7062 47.9981C28.2395 48.0514 24.8474 46.9902 22.0291 44.9707C19.2109 42.9513 17.1155 40.0804 16.0514 36.7806C15.9841 36.5533 15.963 36.3149 15.9893 36.0794C16.0156 35.8438 16.0888 35.6159 16.2046 35.4092C16.3204 35.2024 16.4764 35.0209 16.6635 34.8753C16.8506 34.7298 17.0649 34.6233 17.2939 34.5619Z" fill="white"/>
</svg>
