<svg width="65" height="65" viewBox="0 0 65 65" fill="none" xmlns="http://www.w3.org/2000/svg">
<path d="M11.927 33.3201L31.927 47.3201C32.232 47.5331 32.631 47.5591 32.962 47.3881C33.292 47.2161 33.5 46.8741 33.5 46.5011L33.5 34.4211L51.927 47.3201C52.232 47.5331 52.631 47.5591 52.962 47.3881C53.292 47.2161 53.5 46.8741 53.5 46.5011L53.5 18.5011C53.5 18.1281 53.292 17.7861 52.962 17.6141C52.816 17.5381 52.658 17.5011 52.5 17.5011C52.298 17.5011 52.098 17.5621 51.927 17.6821L33.5 30.5801L33.5 18.5011C33.5 18.1281 33.292 17.7861 32.962 17.6141C32.816 17.5381 32.658 17.5011 32.5 17.5011C32.298 17.5011 32.098 17.5621 31.927 17.6821L11.927 31.6821C11.659 31.8691 11.5 32.1751 11.5 32.5011C11.5 32.8271 11.659 33.1331 11.927 33.3201Z" fill="#141524"/>
</svg>
