<svg width="413" height="394" viewBox="0 0 413 394" fill="none" xmlns="http://www.w3.org/2000/svg">
<path d="M0.5 1L412.5 1L412.5 393L0.5 393L0.5 1Z" fill="#090B0A" stroke="url(#paint0_linear_2570_248579)"/>
<path d="M0.5 1L412.5 1L412.5 393L0.5 393L0.5 1Z" fill="url(#paint1_linear_2570_248579)" fill-opacity="0.8" stroke="url(#paint2_linear_2570_248579)"/>
<path d="M39.3736 55.5L39.3736 42.52L34.2696 42.52L34.2696 40.1L47.3376 40.1L47.3376 42.52L42.2336 42.52L42.2336 55.5L39.3736 55.5ZM53.2969 55.654C52.0942 55.654 51.0236 55.3973 50.0849 54.884C49.1462 54.356 48.4056 53.6373 47.8629 52.728C47.3202 51.8187 47.0489 50.7847 47.0489 49.626C47.0489 48.4527 47.3202 47.4187 47.8629 46.524C48.4056 45.6147 49.1462 44.9033 50.0849 44.39C51.0236 43.8767 52.0942 43.62 53.2969 43.62C54.5142 43.62 55.5922 43.8767 56.5309 44.39C57.4842 44.9033 58.2249 45.6073 58.7529 46.502C59.2956 47.3967 59.5669 48.438 59.5669 49.626C59.5669 50.7847 59.2956 51.8187 58.7529 52.728C58.2249 53.6373 57.4842 54.356 56.5309 54.884C55.5922 55.3973 54.5142 55.654 53.2969 55.654ZM53.2969 53.3C53.9716 53.3 54.5729 53.1533 55.1009 52.86C55.6289 52.5667 56.0396 52.1413 56.3329 51.584C56.6409 51.0267 56.7949 50.374 56.7949 49.626C56.7949 48.8633 56.6409 48.2107 56.3329 47.668C56.0396 47.1107 55.6289 46.6853 55.1009 46.392C54.5729 46.0987 53.9789 45.952 53.3189 45.952C52.6442 45.952 52.0429 46.0987 51.5149 46.392C51.0016 46.6853 50.5909 47.1107 50.2829 47.668C49.9749 48.2107 49.8209 48.8633 49.8209 49.626C49.8209 50.374 49.9749 51.0267 50.2829 51.584C50.5909 52.1413 51.0016 52.5667 51.5149 52.86C52.0429 53.1533 52.6369 53.3 53.2969 53.3ZM67.1686 55.654C66.0392 55.654 65.0199 55.4047 64.1106 54.906C63.2159 54.3927 62.5119 53.6887 61.9986 52.794C61.4852 51.8993 61.2286 50.8433 61.2286 49.626C61.2286 48.4087 61.4852 47.3527 61.9986 46.458C62.5119 45.5633 63.2159 44.8667 64.1106 44.368C65.0199 43.8693 66.0392 43.62 67.1686 43.62C68.1512 43.62 69.0312 43.84 69.8086 44.28C70.5859 44.7053 71.2019 45.358 71.6566 46.238C72.1112 47.118 72.3386 48.2473 72.3386 49.626C72.3386 50.99 72.1186 52.1193 71.6786 53.014C71.2386 53.894 70.6299 54.554 69.8526 54.994C69.0752 55.434 68.1806 55.654 67.1686 55.654ZM67.4986 53.3C68.1586 53.3 68.7452 53.1533 69.2586 52.86C69.7866 52.5667 70.2046 52.1413 70.5126 51.584C70.8352 51.0267 70.9966 50.374 70.9966 49.626C70.9966 48.8633 70.8352 48.2107 70.5126 47.668C70.2046 47.1107 69.7866 46.6853 69.2586 46.392C68.7452 46.0987 68.1586 45.952 67.4986 45.952C66.8386 45.952 66.2446 46.0987 65.7166 46.392C65.2032 46.6853 64.7852 47.1107 64.4626 47.668C64.1546 48.2107 64.0006 48.8633 64.0006 49.626C64.0006 50.374 64.1546 51.0267 64.4626 51.584C64.7852 52.1413 65.2032 52.5667 65.7166 52.86C66.2446 53.1533 66.8386 53.3 67.4986 53.3ZM71.0626 55.5L71.0626 52.728L71.1726 49.604L70.9526 46.48L70.9526 39.176L73.6806 39.176L73.6806 55.5L71.0626 55.5ZM84.5381 55.5L84.5381 53.124L84.3841 52.618L84.3841 48.46C84.3841 47.6533 84.1421 47.03 83.6581 46.59C83.1741 46.1353 82.4408 45.908 81.4581 45.908C80.7981 45.908 80.1454 46.0107 79.5001 46.216C78.8694 46.4213 78.3341 46.7073 77.8941 47.074L76.8161 45.072C77.4468 44.588 78.1948 44.2287 79.0601 43.994C79.9401 43.7447 80.8494 43.62 81.7881 43.62C83.4894 43.62 84.8021 44.0307 85.7261 44.852C86.6648 45.6587 87.1341 46.9127 87.1341 48.614L87.1341 55.5L84.5381 55.5ZM80.8421 55.654C79.9621 55.654 79.1921 55.5073 78.5321 55.214C77.8721 54.906 77.3588 54.488 76.9921 53.96C76.6401 53.4173 76.4641 52.8087 76.4641 52.134C76.4641 51.474 76.6181 50.88 76.9261 50.352C77.2488 49.824 77.7694 49.406 78.4881 49.098C79.2068 48.79 80.1601 48.636 81.3481 48.636L84.7581 48.636L84.7581 50.462L81.5461 50.462C80.6074 50.462 79.9768 50.616 79.6541 50.924C79.3314 51.2173 79.1701 51.584 79.1701 52.024C79.1701 52.5227 79.3681 52.9187 79.7641 53.212C80.1601 53.5053 80.7101 53.652 81.4141 53.652C82.0888 53.652 82.6901 53.498 83.2181 53.19C83.7608 52.882 84.1494 52.4273 84.3841 51.826L84.8461 53.476C84.5821 54.1653 84.1054 54.7007 83.4161 55.082C82.7414 55.4633 81.8834 55.654 80.8421 55.654ZM91.4165 59.922C90.8445 59.922 90.2725 59.8267 89.7005 59.636C89.1285 59.4453 88.6519 59.1813 88.2705 58.844L89.3705 56.82C89.6492 57.0693 89.9645 57.2673 90.3165 57.414C90.6685 57.5607 91.0279 57.634 91.3945 57.634C91.8932 57.634 92.2965 57.5093 92.6045 57.26C92.9125 57.0107 93.1985 56.5927 93.4625 56.006L94.1445 54.466L94.3645 54.136L98.8085 43.752L101.449 43.752L95.9485 56.446C95.5819 57.326 95.1712 58.0227 94.7165 58.536C94.2765 59.0493 93.7779 59.4087 93.2205 59.614C92.6779 59.8193 92.0765 59.922 91.4165 59.922ZM93.8365 55.918L88.5345 43.752L91.3945 43.752L95.7065 53.894L93.8365 55.918ZM101.711 58.822L102.987 53.96L103.361 55.588C102.847 55.588 102.415 55.434 102.063 55.126C101.725 54.8033 101.557 54.3707 101.557 53.828C101.557 53.2707 101.725 52.8307 102.063 52.508C102.415 52.1707 102.84 52.002 103.339 52.002C103.852 52.002 104.277 52.1707 104.615 52.508C104.952 52.8453 105.121 53.2853 105.121 53.828C105.121 53.9747 105.106 54.136 105.077 54.312C105.047 54.4733 104.996 54.664 104.923 54.884C104.864 55.104 104.761 55.3827 104.615 55.72L103.493 58.822L101.711 58.822ZM115.516 55.5L115.516 41.2L116.77 42.498L112.26 42.498L112.26 40.1L118.376 40.1L118.376 55.5L115.516 55.5ZM121.211 52.002L121.211 50.022L128.801 40.1L131.859 40.1L124.379 50.022L122.949 49.582L135.159 49.582L135.159 52.002L121.211 52.002ZM129.659 55.5L129.659 52.002L129.747 49.582L129.747 46.48L132.431 46.48L132.431 55.5L129.659 55.5ZM145.941 55.72C144.958 55.72 144.049 55.5293 143.213 55.148C142.391 54.7667 141.717 54.2167 141.189 53.498L142.817 51.54C143.242 52.1267 143.704 52.5667 144.203 52.86C144.716 53.1533 145.273 53.3 145.875 53.3C147.473 53.3 148.273 52.354 148.273 50.462L148.273 42.498L142.795 42.498L142.795 40.1L151.133 40.1L151.133 50.308C151.133 52.1267 150.685 53.4833 149.791 54.378C148.911 55.2727 147.627 55.72 145.941 55.72ZM159.852 55.654C158.855 55.654 157.975 55.4707 157.212 55.104C156.45 54.7227 155.856 54.1507 155.43 53.388C155.005 52.6107 154.792 51.6353 154.792 50.462L154.792 43.752L157.542 43.752L157.542 50.088C157.542 51.144 157.777 51.936 158.246 52.464C158.73 52.9773 159.412 53.234 160.292 53.234C160.938 53.234 161.495 53.102 161.964 52.838C162.448 52.574 162.822 52.178 163.086 51.65C163.365 51.122 163.504 50.4693 163.504 49.692L163.504 43.752L166.254 43.752L166.254 55.5L163.636 55.5L163.636 52.332L164.098 53.3C163.702 54.0627 163.123 54.6493 162.36 55.06C161.598 55.456 160.762 55.654 159.852 55.654ZM176.521 43.62C177.459 43.62 178.295 43.8033 179.029 44.17C179.777 44.5367 180.363 45.1013 180.789 45.864C181.214 46.612 181.427 47.58 181.427 48.768L181.427 55.5L178.677 55.5L178.677 49.12C178.677 48.0787 178.427 47.3013 177.929 46.788C177.445 46.2747 176.763 46.018 175.883 46.018C175.237 46.018 174.665 46.15 174.167 46.414C173.668 46.678 173.279 47.074 173.001 47.602C172.737 48.1153 172.605 48.768 172.605 49.56L172.605 55.5L169.855 55.5L169.855 43.752L172.473 43.752L172.473 46.92L172.011 45.952C172.421 45.204 173.015 44.632 173.793 44.236C174.585 43.8253 175.494 43.62 176.521 43.62ZM190.459 55.654C189.153 55.654 188.009 55.3973 187.027 54.884C186.059 54.356 185.303 53.6373 184.761 52.728C184.233 51.8187 183.969 50.7847 183.969 49.626C183.969 48.4527 184.225 47.4187 184.739 46.524C185.267 45.6147 185.985 44.9033 186.895 44.39C187.819 43.8767 188.867 43.62 190.041 43.62C191.185 43.62 192.204 43.8693 193.099 44.368C193.993 44.8667 194.697 45.5707 195.211 46.48C195.724 47.3893 195.981 48.46 195.981 49.692C195.981 49.8093 195.973 49.9413 195.959 50.088C195.959 50.2347 195.951 50.374 195.937 50.506L186.147 50.506L186.147 48.68L194.485 48.68L193.407 49.252C193.421 48.5773 193.282 47.9833 192.989 47.47C192.695 46.9567 192.292 46.5533 191.779 46.26C191.28 45.9667 190.701 45.82 190.041 45.82C189.366 45.82 188.772 45.9667 188.259 46.26C187.76 46.5533 187.364 46.964 187.071 47.492C186.792 48.0053 186.653 48.614 186.653 49.318L186.653 49.758C186.653 50.462 186.814 51.0853 187.137 51.628C187.459 52.1707 187.914 52.5887 188.501 52.882C189.087 53.1753 189.762 53.322 190.525 53.322C191.185 53.322 191.779 53.2193 192.307 53.014C192.835 52.8087 193.304 52.486 193.715 52.046L195.189 53.74C194.661 54.356 193.993 54.8327 193.187 55.17C192.395 55.4927 191.485 55.654 190.459 55.654Z" fill="white"/>
<rect x="24" y="95.5" width="6" height="50" rx="3" fill="#FF6BD5"/>
<path d="M54.466 128.72C53.4833 128.72 52.574 128.529 51.738 128.148C50.9167 127.767 50.242 127.217 49.714 126.498L51.342 124.54C51.7673 125.127 52.2293 125.567 52.728 125.86C53.2413 126.153 53.7987 126.3 54.4 126.3C55.9987 126.3 56.798 125.354 56.798 123.462V115.498H51.32V113.1H59.658V123.308C59.658 125.127 59.2107 126.483 58.316 127.378C57.436 128.273 56.1527 128.72 54.466 128.72ZM68.9276 128.654C67.6222 128.654 66.4782 128.397 65.4956 127.884C64.5276 127.356 63.7722 126.637 63.2296 125.728C62.7016 124.819 62.4376 123.785 62.4376 122.626C62.4376 121.453 62.6942 120.419 63.2076 119.524C63.7356 118.615 64.4542 117.903 65.3636 117.39C66.2876 116.877 67.3362 116.62 68.5096 116.62C69.6536 116.62 70.6729 116.869 71.5676 117.368C72.4622 117.867 73.1662 118.571 73.6796 119.48C74.1929 120.389 74.4496 121.46 74.4496 122.692C74.4496 122.809 74.4422 122.941 74.4276 123.088C74.4276 123.235 74.4202 123.374 74.4056 123.506H64.6156V121.68H72.9536L71.8756 122.252C71.8902 121.577 71.7509 120.983 71.4576 120.47C71.1642 119.957 70.7609 119.553 70.2476 119.26C69.7489 118.967 69.1696 118.82 68.5096 118.82C67.8349 118.82 67.2409 118.967 66.7276 119.26C66.2289 119.553 65.8329 119.964 65.5396 120.492C65.2609 121.005 65.1216 121.614 65.1216 122.318V122.758C65.1216 123.462 65.2829 124.085 65.6056 124.628C65.9282 125.171 66.3829 125.589 66.9696 125.882C67.5562 126.175 68.2309 126.322 68.9936 126.322C69.6536 126.322 70.2476 126.219 70.7756 126.014C71.3036 125.809 71.7729 125.486 72.1836 125.046L73.6576 126.74C73.1296 127.356 72.4622 127.833 71.6556 128.17C70.8636 128.493 69.9542 128.654 68.9276 128.654ZM80.7211 128.654C79.7384 128.654 78.7924 128.529 77.8831 128.28C76.9884 128.016 76.2771 127.701 75.7491 127.334L76.8051 125.244C77.3331 125.581 77.9638 125.86 78.6971 126.08C79.4304 126.3 80.1638 126.41 80.8971 126.41C81.7624 126.41 82.3858 126.293 82.7671 126.058C83.1631 125.823 83.3611 125.508 83.3611 125.112C83.3611 124.789 83.2291 124.547 82.9651 124.386C82.7011 124.21 82.3564 124.078 81.9311 123.99C81.5058 123.902 81.0291 123.821 80.5011 123.748C79.9878 123.675 79.4671 123.579 78.9391 123.462C78.4258 123.33 77.9564 123.147 77.5311 122.912C77.1058 122.663 76.7611 122.333 76.4971 121.922C76.2331 121.511 76.1011 120.969 76.1011 120.294C76.1011 119.546 76.3138 118.901 76.7391 118.358C77.1644 117.801 77.7584 117.375 78.5211 117.082C79.2984 116.774 80.2151 116.62 81.2711 116.62C82.0631 116.62 82.8624 116.708 83.6691 116.884C84.4758 117.06 85.1431 117.309 85.6711 117.632L84.6151 119.722C84.0578 119.385 83.4931 119.157 82.9211 119.04C82.3638 118.908 81.8064 118.842 81.2491 118.842C80.4131 118.842 79.7898 118.967 79.3791 119.216C78.9831 119.465 78.7851 119.781 78.7851 120.162C78.7851 120.514 78.9171 120.778 79.1811 120.954C79.4451 121.13 79.7898 121.269 80.2151 121.372C80.6404 121.475 81.1098 121.563 81.6231 121.636C82.1511 121.695 82.6718 121.79 83.1851 121.922C83.6984 122.054 84.1678 122.237 84.5931 122.472C85.0331 122.692 85.3851 123.007 85.6491 123.418C85.9131 123.829 86.0451 124.364 86.0451 125.024C86.0451 125.757 85.8251 126.395 85.3851 126.938C84.9598 127.481 84.3511 127.906 83.5591 128.214C82.7671 128.507 81.8211 128.654 80.7211 128.654ZM92.0434 128.654C91.0607 128.654 90.1147 128.529 89.2054 128.28C88.3107 128.016 87.5994 127.701 87.0714 127.334L88.1274 125.244C88.6554 125.581 89.286 125.86 90.0194 126.08C90.7527 126.3 91.486 126.41 92.2194 126.41C93.0847 126.41 93.708 126.293 94.0894 126.058C94.4854 125.823 94.6834 125.508 94.6834 125.112C94.6834 124.789 94.5514 124.547 94.2874 124.386C94.0234 124.21 93.6787 124.078 93.2534 123.99C92.828 123.902 92.3514 123.821 91.8234 123.748C91.31 123.675 90.7894 123.579 90.2614 123.462C89.748 123.33 89.2787 123.147 88.8534 122.912C88.428 122.663 88.0834 122.333 87.8194 121.922C87.5554 121.511 87.4234 120.969 87.4234 120.294C87.4234 119.546 87.636 118.901 88.0614 118.358C88.4867 117.801 89.0807 117.375 89.8434 117.082C90.6207 116.774 91.5374 116.62 92.5934 116.62C93.3854 116.62 94.1847 116.708 94.9914 116.884C95.798 117.06 96.4654 117.309 96.9934 117.632L95.9374 119.722C95.38 119.385 94.8154 119.157 94.2434 119.04C93.686 118.908 93.1287 118.842 92.5714 118.842C91.7354 118.842 91.112 118.967 90.7014 119.216C90.3054 119.465 90.1074 119.781 90.1074 120.162C90.1074 120.514 90.2394 120.778 90.5034 120.954C90.7674 121.13 91.112 121.269 91.5374 121.372C91.9627 121.475 92.432 121.563 92.9454 121.636C93.4734 121.695 93.994 121.79 94.5074 121.922C95.0207 122.054 95.49 122.237 95.9154 122.472C96.3554 122.692 96.7074 123.007 96.9714 123.418C97.2354 123.829 97.3674 124.364 97.3674 125.024C97.3674 125.757 97.1474 126.395 96.7074 126.938C96.282 127.481 95.6734 127.906 94.8814 128.214C94.0894 128.507 93.1434 128.654 92.0434 128.654ZM99.7356 128.5V116.752H102.486V128.5H99.7356ZM101.122 114.816C100.608 114.816 100.183 114.655 99.8456 114.332C99.523 114.009 99.3616 113.621 99.3616 113.166C99.3616 112.697 99.523 112.308 99.8456 112C100.183 111.677 100.608 111.516 101.122 111.516C101.635 111.516 102.053 111.67 102.376 111.978C102.713 112.271 102.882 112.645 102.882 113.1C102.882 113.584 102.72 113.995 102.398 114.332C102.075 114.655 101.65 114.816 101.122 114.816ZM111.485 128.654C110.253 128.654 109.153 128.397 108.185 127.884C107.232 127.356 106.484 126.637 105.941 125.728C105.398 124.819 105.127 123.785 105.127 122.626C105.127 121.453 105.398 120.419 105.941 119.524C106.484 118.615 107.232 117.903 108.185 117.39C109.153 116.877 110.253 116.62 111.485 116.62C112.629 116.62 113.634 116.855 114.499 117.324C115.379 117.779 116.046 118.453 116.501 119.348L114.389 120.58C114.037 120.023 113.604 119.612 113.091 119.348C112.592 119.084 112.05 118.952 111.463 118.952C110.788 118.952 110.18 119.099 109.637 119.392C109.094 119.685 108.669 120.111 108.361 120.668C108.053 121.211 107.899 121.863 107.899 122.626C107.899 123.389 108.053 124.049 108.361 124.606C108.669 125.149 109.094 125.567 109.637 125.86C110.18 126.153 110.788 126.3 111.463 126.3C112.05 126.3 112.592 126.168 113.091 125.904C113.604 125.64 114.037 125.229 114.389 124.672L116.501 125.904C116.046 126.784 115.379 127.466 114.499 127.95C113.634 128.419 112.629 128.654 111.485 128.654ZM126.116 128.5V126.124L125.962 125.618V121.46C125.962 120.653 125.72 120.03 125.236 119.59C124.752 119.135 124.019 118.908 123.036 118.908C122.376 118.908 121.724 119.011 121.078 119.216C120.448 119.421 119.912 119.707 119.472 120.074L118.394 118.072C119.025 117.588 119.773 117.229 120.638 116.994C121.518 116.745 122.428 116.62 123.366 116.62C125.068 116.62 126.38 117.031 127.304 117.852C128.243 118.659 128.712 119.913 128.712 121.614V128.5H126.116ZM122.42 128.654C121.54 128.654 120.77 128.507 120.11 128.214C119.45 127.906 118.937 127.488 118.57 126.96C118.218 126.417 118.042 125.809 118.042 125.134C118.042 124.474 118.196 123.88 118.504 123.352C118.827 122.824 119.348 122.406 120.066 122.098C120.785 121.79 121.738 121.636 122.926 121.636H126.336V123.462H123.124C122.186 123.462 121.555 123.616 121.232 123.924C120.91 124.217 120.748 124.584 120.748 125.024C120.748 125.523 120.946 125.919 121.342 126.212C121.738 126.505 122.288 126.652 122.992 126.652C123.667 126.652 124.268 126.498 124.796 126.19C125.339 125.882 125.728 125.427 125.962 124.826L126.424 126.476C126.16 127.165 125.684 127.701 124.994 128.082C124.32 128.463 123.462 128.654 122.42 128.654ZM131.408 118.842L132.684 113.958L133.058 115.608C132.545 115.608 132.112 115.447 131.76 115.124C131.423 114.801 131.254 114.369 131.254 113.826C131.254 113.283 131.423 112.851 131.76 112.528C132.112 112.191 132.537 112.022 133.036 112.022C133.549 112.022 133.975 112.191 134.312 112.528C134.649 112.865 134.818 113.298 134.818 113.826C134.818 113.987 134.803 114.156 134.774 114.332C134.759 114.493 134.715 114.684 134.642 114.904C134.583 115.109 134.481 115.381 134.334 115.718L133.19 118.842H131.408ZM140.77 128.654C139.787 128.654 138.841 128.529 137.932 128.28C137.037 128.016 136.326 127.701 135.798 127.334L136.854 125.244C137.382 125.581 138.013 125.86 138.746 126.08C139.479 126.3 140.213 126.41 140.946 126.41C141.811 126.41 142.435 126.293 142.816 126.058C143.212 125.823 143.41 125.508 143.41 125.112C143.41 124.789 143.278 124.547 143.014 124.386C142.75 124.21 142.405 124.078 141.98 123.99C141.555 123.902 141.078 123.821 140.55 123.748C140.037 123.675 139.516 123.579 138.988 123.462C138.475 123.33 138.005 123.147 137.58 122.912C137.155 122.663 136.81 122.333 136.546 121.922C136.282 121.511 136.15 120.969 136.15 120.294C136.15 119.546 136.363 118.901 136.788 118.358C137.213 117.801 137.807 117.375 138.57 117.082C139.347 116.774 140.264 116.62 141.32 116.62C142.112 116.62 142.911 116.708 143.718 116.884C144.525 117.06 145.192 117.309 145.72 117.632L144.664 119.722C144.107 119.385 143.542 119.157 142.97 119.04C142.413 118.908 141.855 118.842 141.298 118.842C140.462 118.842 139.839 118.967 139.428 119.216C139.032 119.465 138.834 119.781 138.834 120.162C138.834 120.514 138.966 120.778 139.23 120.954C139.494 121.13 139.839 121.269 140.264 121.372C140.689 121.475 141.159 121.563 141.672 121.636C142.2 121.695 142.721 121.79 143.234 121.922C143.747 122.054 144.217 122.237 144.642 122.472C145.082 122.692 145.434 123.007 145.698 123.418C145.962 123.829 146.094 124.364 146.094 125.024C146.094 125.757 145.874 126.395 145.434 126.938C145.009 127.481 144.4 127.906 143.608 128.214C142.816 128.507 141.87 128.654 140.77 128.654ZM161.054 128.654C160.057 128.654 159.17 128.434 158.392 127.994C157.615 127.554 156.999 126.894 156.544 126.014C156.104 125.119 155.884 123.99 155.884 122.626C155.884 121.247 156.112 120.118 156.566 119.238C157.036 118.358 157.659 117.705 158.436 117.28C159.228 116.84 160.101 116.62 161.054 116.62C162.213 116.62 163.232 116.869 164.112 117.368C165.007 117.867 165.711 118.563 166.224 119.458C166.752 120.353 167.016 121.409 167.016 122.626C167.016 123.843 166.752 124.899 166.224 125.794C165.711 126.689 165.007 127.393 164.112 127.906C163.232 128.405 162.213 128.654 161.054 128.654ZM154.542 128.5V112.176H157.292V119.48L157.072 122.604L157.16 125.728V128.5H154.542ZM160.746 126.3C161.406 126.3 161.993 126.153 162.506 125.86C163.034 125.567 163.452 125.141 163.76 124.584C164.068 124.027 164.222 123.374 164.222 122.626C164.222 121.863 164.068 121.211 163.76 120.668C163.452 120.111 163.034 119.685 162.506 119.392C161.993 119.099 161.406 118.952 160.746 118.952C160.086 118.952 159.492 119.099 158.964 119.392C158.436 119.685 158.018 120.111 157.71 120.668C157.402 121.211 157.248 121.863 157.248 122.626C157.248 123.374 157.402 124.027 157.71 124.584C158.018 125.141 158.436 125.567 158.964 125.86C159.492 126.153 160.086 126.3 160.746 126.3ZM169.624 128.5V116.752H172.374V128.5H169.624ZM171.01 114.816C170.497 114.816 170.072 114.655 169.734 114.332C169.412 114.009 169.25 113.621 169.25 113.166C169.25 112.697 169.412 112.308 169.734 112C170.072 111.677 170.497 111.516 171.01 111.516C171.524 111.516 171.942 111.67 172.264 111.978C172.602 112.271 172.77 112.645 172.77 113.1C172.77 113.584 172.609 113.995 172.286 114.332C171.964 114.655 171.538 114.816 171.01 114.816ZM175.984 128.5V116.752L178.602 116.752V119.986L178.294 119.04C178.646 118.248 179.196 117.647 179.944 117.236C180.706 116.825 181.652 116.62 182.782 116.62V119.238C182.664 119.209 182.554 119.194 182.452 119.194C182.349 119.179 182.246 119.172 182.144 119.172C181.102 119.172 180.274 119.48 179.658 120.096C179.042 120.697 178.734 121.599 178.734 122.802V128.5H175.984ZM189.966 128.654C188.676 128.654 187.678 128.324 186.974 127.664C186.27 126.989 185.918 125.999 185.918 124.694V114.156H188.668V124.628C188.668 125.185 188.808 125.618 189.086 125.926C189.38 126.234 189.783 126.388 190.296 126.388C190.912 126.388 191.426 126.227 191.836 125.904L192.606 127.862C192.284 128.126 191.888 128.324 191.418 128.456C190.949 128.588 190.465 128.654 189.966 128.654ZM183.982 119.04V116.84H191.814V119.04H183.982ZM201.534 116.62C202.473 116.62 203.309 116.803 204.042 117.17C204.79 117.537 205.377 118.101 205.802 118.864C206.228 119.612 206.44 120.58 206.44 121.768V128.5H203.69V122.12C203.69 121.079 203.441 120.301 202.942 119.788C202.458 119.275 201.776 119.018 200.896 119.018C200.251 119.018 199.679 119.15 199.18 119.414C198.682 119.678 198.293 120.074 198.014 120.602C197.75 121.115 197.618 121.768 197.618 122.56V128.5H194.868V112.176H197.618V119.92L197.024 118.952C197.435 118.204 198.029 117.632 198.806 117.236C199.598 116.825 200.508 116.62 201.534 116.62ZM214.922 128.654C213.793 128.654 212.774 128.405 211.864 127.906C210.97 127.393 210.266 126.689 209.752 125.794C209.239 124.899 208.982 123.843 208.982 122.626C208.982 121.409 209.239 120.353 209.752 119.458C210.266 118.563 210.97 117.867 211.864 117.368C212.774 116.869 213.793 116.62 214.922 116.62C215.905 116.62 216.785 116.84 217.562 117.28C218.34 117.705 218.956 118.358 219.41 119.238C219.865 120.118 220.092 121.247 220.092 122.626C220.092 123.99 219.872 125.119 219.432 126.014C218.992 126.894 218.384 127.554 217.606 127.994C216.829 128.434 215.934 128.654 214.922 128.654ZM215.252 126.3C215.912 126.3 216.499 126.153 217.012 125.86C217.54 125.567 217.958 125.141 218.266 124.584C218.589 124.027 218.75 123.374 218.75 122.626C218.75 121.863 218.589 121.211 218.266 120.668C217.958 120.111 217.54 119.685 217.012 119.392C216.499 119.099 215.912 118.952 215.252 118.952C214.592 118.952 213.998 119.099 213.47 119.392C212.957 119.685 212.539 120.111 212.216 120.668C211.908 121.211 211.754 121.863 211.754 122.626C211.754 123.374 211.908 124.027 212.216 124.584C212.539 125.141 212.957 125.567 213.47 125.86C213.998 126.153 214.592 126.3 215.252 126.3ZM218.816 128.5V125.728L218.926 122.604L218.706 119.48V112.176H221.434V128.5H218.816ZM232.292 128.5V126.124L232.138 125.618V121.46C232.138 120.653 231.896 120.03 231.412 119.59C230.928 119.135 230.195 118.908 229.212 118.908C228.552 118.908 227.899 119.011 227.254 119.216C226.623 119.421 226.088 119.707 225.648 120.074L224.57 118.072C225.201 117.588 225.949 117.229 226.814 116.994C227.694 116.745 228.603 116.62 229.542 116.62C231.243 116.62 232.556 117.031 233.48 117.852C234.419 118.659 234.888 119.913 234.888 121.614V128.5H232.292ZM228.596 128.654C227.716 128.654 226.946 128.507 226.286 128.214C225.626 127.906 225.113 127.488 224.746 126.96C224.394 126.417 224.218 125.809 224.218 125.134C224.218 124.474 224.372 123.88 224.68 123.352C225.003 122.824 225.523 122.406 226.242 122.098C226.961 121.79 227.914 121.636 229.102 121.636H232.512V123.462H229.3C228.361 123.462 227.731 123.616 227.408 123.924C227.085 124.217 226.924 124.584 226.924 125.024C226.924 125.523 227.122 125.919 227.518 126.212C227.914 126.505 228.464 126.652 229.168 126.652C229.843 126.652 230.444 126.498 230.972 126.19C231.515 125.882 231.903 125.427 232.138 124.826L232.6 126.476C232.336 127.165 231.859 127.701 231.17 128.082C230.495 128.463 229.637 128.654 228.596 128.654ZM239.17 132.922C238.598 132.922 238.026 132.827 237.454 132.636C236.882 132.445 236.406 132.181 236.024 131.844L237.124 129.82C237.403 130.069 237.718 130.267 238.07 130.414C238.422 130.561 238.782 130.634 239.148 130.634C239.647 130.634 240.05 130.509 240.358 130.26C240.666 130.011 240.952 129.593 241.216 129.006L241.898 127.466L242.118 127.136L246.562 116.752H249.202L243.702 129.446C243.336 130.326 242.925 131.023 242.47 131.536C242.03 132.049 241.532 132.409 240.974 132.614C240.432 132.819 239.83 132.922 239.17 132.922ZM241.59 128.918L236.288 116.752H239.148L243.46 126.894L241.59 128.918Z" fill="#EEEEEE"/>
<path d="M24 170.5L389 170.5" stroke="#090B0A"/>
<rect x="24" y="195.5" width="6" height="50" rx="3" fill="#FF6BD5"/>
<path d="M52.068 228.5V213.1H58.404C59.768 213.1 60.934 213.32 61.902 213.76C62.8847 214.2 63.64 214.831 64.168 215.652C64.696 216.473 64.96 217.449 64.96 218.578C64.96 219.707 64.696 220.683 64.168 221.504C63.64 222.325 62.8847 222.956 61.902 223.396C60.934 223.836 59.768 224.056 58.404 224.056H53.652L54.928 222.714V228.5H52.068ZM54.928 223.022L53.652 221.636H58.272C59.5333 221.636 60.4793 221.372 61.11 220.844C61.7553 220.301 62.078 219.546 62.078 218.578C62.078 217.595 61.7553 216.84 61.11 216.312C60.4793 215.784 59.5333 215.52 58.272 215.52H53.652L54.928 214.112V223.022ZM70.4889 228.5V215.52H65.3849V213.1H78.4529V215.52H73.3489V228.5H70.4889ZM87.6004 228.72C86.3977 228.72 85.2904 228.522 84.2784 228.126C83.2664 227.73 82.3864 227.18 81.6384 226.476C80.8904 225.757 80.3111 224.921 79.9004 223.968C79.4897 223 79.2844 221.944 79.2844 220.8C79.2844 219.656 79.4897 218.607 79.9004 217.654C80.3111 216.686 80.8904 215.85 81.6384 215.146C82.3864 214.427 83.2664 213.87 84.2784 213.474C85.2904 213.078 86.3904 212.88 87.5784 212.88C88.7811 212.88 89.8811 213.078 90.8784 213.474C91.8904 213.87 92.7704 214.427 93.5184 215.146C94.2664 215.85 94.8457 216.686 95.2564 217.654C95.6671 218.607 95.8724 219.656 95.8724 220.8C95.8724 221.944 95.6671 223 95.2564 223.968C94.8457 224.936 94.2664 225.772 93.5184 226.476C92.7704 227.18 91.8904 227.73 90.8784 228.126C89.8811 228.522 88.7884 228.72 87.6004 228.72ZM87.5784 226.212C88.3557 226.212 89.0744 226.08 89.7344 225.816C90.3944 225.552 90.9664 225.178 91.4504 224.694C91.9344 224.195 92.3084 223.623 92.5724 222.978C92.8511 222.318 92.9904 221.592 92.9904 220.8C92.9904 220.008 92.8511 219.289 92.5724 218.644C92.3084 217.984 91.9344 217.412 91.4504 216.928C90.9664 216.429 90.3944 216.048 89.7344 215.784C89.0744 215.52 88.3557 215.388 87.5784 215.388C86.8011 215.388 86.0824 215.52 85.4224 215.784C84.7771 216.048 84.2051 216.429 83.7064 216.928C83.2224 217.412 82.8411 217.984 82.5624 218.644C82.2984 219.289 82.1664 220.008 82.1664 220.8C82.1664 221.577 82.2984 222.296 82.5624 222.956C82.8411 223.616 83.2224 224.195 83.7064 224.694C84.1904 225.178 84.7624 225.552 85.4224 225.816C86.0824 226.08 86.8011 226.212 87.5784 226.212Z" fill="#EEEEEE"/>
<path d="M24 270.5L389 270.5" stroke="#090B0A"/>
<rect x="24" y="295.5" width="6" height="50" rx="3" fill="#057CE9"/>
<path d="M55.192 312.5V299.52H50.088V297.1H63.156V299.52H58.052V312.5H55.192ZM69.3573 312.654C68.0519 312.654 66.9079 312.397 65.9253 311.884C64.9573 311.356 64.2019 310.637 63.6593 309.728C63.1313 308.819 62.8673 307.785 62.8673 306.626C62.8673 305.453 63.1239 304.419 63.6373 303.524C64.1653 302.615 64.8839 301.903 65.7933 301.39C66.7173 300.877 67.7659 300.62 68.9393 300.62C70.0833 300.62 71.1026 300.869 71.9973 301.368C72.8919 301.867 73.5959 302.571 74.1093 303.48C74.6226 304.389 74.8793 305.46 74.8793 306.692C74.8793 306.809 74.8719 306.941 74.8573 307.088C74.8573 307.235 74.8499 307.374 74.8353 307.506H65.0453V305.68H73.3833L72.3053 306.252C72.3199 305.577 72.1806 304.983 71.8873 304.47C71.5939 303.957 71.1906 303.553 70.6773 303.26C70.1786 302.967 69.5993 302.82 68.9393 302.82C68.2646 302.82 67.6706 302.967 67.1573 303.26C66.6586 303.553 66.2626 303.964 65.9693 304.492C65.6906 305.005 65.5513 305.614 65.5513 306.318V306.758C65.5513 307.462 65.7126 308.085 66.0353 308.628C66.3579 309.171 66.8126 309.589 67.3993 309.882C67.9859 310.175 68.6606 310.322 69.4233 310.322C70.0833 310.322 70.6773 310.219 71.2053 310.014C71.7333 309.809 72.2026 309.486 72.6133 309.046L74.0873 310.74C73.5593 311.356 72.8919 311.833 72.0853 312.17C71.2933 312.493 70.3839 312.654 69.3573 312.654ZM84.4365 312.5V310.124L84.2825 309.618V305.46C84.2825 304.653 84.0405 304.03 83.5565 303.59C83.0725 303.135 82.3392 302.908 81.3565 302.908C80.6965 302.908 80.0439 303.011 79.3985 303.216C78.7679 303.421 78.2325 303.707 77.7925 304.074L76.7145 302.072C77.3452 301.588 78.0932 301.229 78.9585 300.994C79.8385 300.745 80.7479 300.62 81.6865 300.62C83.3879 300.62 84.7005 301.031 85.6245 301.852C86.5632 302.659 87.0325 303.913 87.0325 305.614V312.5H84.4365ZM80.7405 312.654C79.8605 312.654 79.0905 312.507 78.4305 312.214C77.7705 311.906 77.2572 311.488 76.8905 310.96C76.5385 310.417 76.3625 309.809 76.3625 309.134C76.3625 308.474 76.5165 307.88 76.8245 307.352C77.1472 306.824 77.6679 306.406 78.3865 306.098C79.1052 305.79 80.0585 305.636 81.2465 305.636H84.6565V307.462H81.4445C80.5059 307.462 79.8752 307.616 79.5525 307.924C79.2299 308.217 79.0685 308.584 79.0685 309.024C79.0685 309.523 79.2665 309.919 79.6625 310.212C80.0585 310.505 80.6085 310.652 81.3125 310.652C81.9872 310.652 82.5885 310.498 83.1165 310.19C83.6592 309.882 84.0479 309.427 84.2825 308.826L84.7445 310.476C84.4805 311.165 84.0039 311.701 83.3145 312.082C82.6399 312.463 81.7819 312.654 80.7405 312.654ZM105.39 300.62C106.328 300.62 107.157 300.803 107.876 301.17C108.609 301.537 109.181 302.101 109.592 302.864C110.002 303.612 110.208 304.58 110.208 305.768V312.5H107.458V306.12C107.458 305.079 107.23 304.301 106.776 303.788C106.321 303.275 105.668 303.018 104.818 303.018C104.216 303.018 103.681 303.15 103.212 303.414C102.757 303.678 102.398 304.067 102.134 304.58C101.884 305.093 101.76 305.746 101.76 306.538V312.5H99.0098V306.12C99.0098 305.079 98.7825 304.301 98.3278 303.788C97.8731 303.275 97.2205 303.018 96.3698 303.018C95.7685 303.018 95.2331 303.15 94.7638 303.414C94.3091 303.678 93.9498 304.067 93.6858 304.58C93.4365 305.093 93.3118 305.746 93.3118 306.538V312.5H90.5618V300.752H93.1798V303.876L92.7178 302.952C93.1138 302.189 93.6858 301.61 94.4338 301.214C95.1965 300.818 96.0618 300.62 97.0298 300.62C98.1298 300.62 99.0831 300.891 99.8898 301.434C100.711 301.977 101.254 302.798 101.518 303.898L100.44 303.524C100.821 302.644 101.452 301.94 102.332 301.412C103.212 300.884 104.231 300.62 105.39 300.62ZM120.066 312.5V297.1H122.42L129.152 308.342H127.92L134.542 297.1H136.896L136.918 312.5H134.212L134.19 301.346H134.762L129.13 310.74H127.854L122.134 301.346H122.794V312.5H120.066ZM146.336 312.654C145.03 312.654 143.886 312.397 142.904 311.884C141.936 311.356 141.18 310.637 140.638 309.728C140.11 308.819 139.846 307.785 139.846 306.626C139.846 305.453 140.102 304.419 140.616 303.524C141.144 302.615 141.862 301.903 142.772 301.39C143.696 300.877 144.744 300.62 145.918 300.62C147.062 300.62 148.081 300.869 148.976 301.368C149.87 301.867 150.574 302.571 151.088 303.48C151.601 304.389 151.858 305.46 151.858 306.692C151.858 306.809 151.85 306.941 151.836 307.088C151.836 307.235 151.828 307.374 151.814 307.506H142.024V305.68H150.362L149.284 306.252C149.298 305.577 149.159 304.983 148.866 304.47C148.572 303.957 148.169 303.553 147.656 303.26C147.157 302.967 146.578 302.82 145.918 302.82C145.243 302.82 144.649 302.967 144.136 303.26C143.637 303.553 143.241 303.964 142.948 304.492C142.669 305.005 142.53 305.614 142.53 306.318V306.758C142.53 307.462 142.691 308.085 143.014 308.628C143.336 309.171 143.791 309.589 144.378 309.882C144.964 310.175 145.639 310.322 146.402 310.322C147.062 310.322 147.656 310.219 148.184 310.014C148.712 309.809 149.181 309.486 149.592 309.046L151.066 310.74C150.538 311.356 149.87 311.833 149.064 312.17C148.272 312.493 147.362 312.654 146.336 312.654ZM160.021 312.654C158.716 312.654 157.572 312.397 156.589 311.884C155.621 311.356 154.866 310.637 154.323 309.728C153.795 308.819 153.531 307.785 153.531 306.626C153.531 305.453 153.788 304.419 154.301 303.524C154.829 302.615 155.548 301.903 156.457 301.39C157.381 300.877 158.43 300.62 159.603 300.62C160.747 300.62 161.767 300.869 162.661 301.368C163.556 301.867 164.26 302.571 164.773 303.48C165.287 304.389 165.543 305.46 165.543 306.692C165.543 306.809 165.536 306.941 165.521 307.088C165.521 307.235 165.514 307.374 165.499 307.506H155.709V305.68H164.047L162.969 306.252C162.984 305.577 162.845 304.983 162.551 304.47C162.258 303.957 161.855 303.553 161.341 303.26C160.843 302.967 160.263 302.82 159.603 302.82C158.929 302.82 158.335 302.967 157.821 303.26C157.323 303.553 156.927 303.964 156.633 304.492C156.355 305.005 156.215 305.614 156.215 306.318V306.758C156.215 307.462 156.377 308.085 156.699 308.628C157.022 309.171 157.477 309.589 158.063 309.882C158.65 310.175 159.325 310.322 160.087 310.322C160.747 310.322 161.341 310.219 161.869 310.014C162.397 309.809 162.867 309.486 163.277 309.046L164.751 310.74C164.223 311.356 163.556 311.833 162.749 312.17C161.957 312.493 161.048 312.654 160.021 312.654ZM172.607 312.654C171.316 312.654 170.319 312.324 169.615 311.664C168.911 310.989 168.559 309.999 168.559 308.694V298.156H171.309V308.628C171.309 309.185 171.448 309.618 171.727 309.926C172.02 310.234 172.424 310.388 172.937 310.388C173.553 310.388 174.066 310.227 174.477 309.904L175.247 311.862C174.924 312.126 174.528 312.324 174.059 312.456C173.59 312.588 173.106 312.654 172.607 312.654ZM166.623 303.04V300.84H174.455V303.04H166.623ZM177.509 312.5V300.752H180.259V312.5H177.509ZM178.895 298.816C178.382 298.816 177.956 298.655 177.619 298.332C177.296 298.009 177.135 297.621 177.135 297.166C177.135 296.697 177.296 296.308 177.619 296C177.956 295.677 178.382 295.516 178.895 295.516C179.408 295.516 179.826 295.67 180.149 295.978C180.486 296.271 180.655 296.645 180.655 297.1C180.655 297.584 180.494 297.995 180.171 298.332C179.848 298.655 179.423 298.816 178.895 298.816ZM190.534 300.62C191.473 300.62 192.309 300.803 193.042 301.17C193.79 301.537 194.377 302.101 194.802 302.864C195.228 303.612 195.44 304.58 195.44 305.768V312.5H192.69V306.12C192.69 305.079 192.441 304.301 191.942 303.788C191.458 303.275 190.776 303.018 189.896 303.018C189.251 303.018 188.679 303.15 188.18 303.414C187.682 303.678 187.293 304.074 187.014 304.602C186.75 305.115 186.618 305.768 186.618 306.56V312.5H183.868V300.752H186.486V303.92L186.024 302.952C186.435 302.204 187.029 301.632 187.806 301.236C188.598 300.825 189.508 300.62 190.534 300.62ZM204.274 316.922C203.189 316.922 202.126 316.775 201.084 316.482C200.058 316.203 199.214 315.793 198.554 315.25L199.786 313.182C200.3 313.607 200.945 313.945 201.722 314.194C202.514 314.458 203.314 314.59 204.12 314.59C205.411 314.59 206.357 314.289 206.958 313.688C207.56 313.101 207.86 312.214 207.86 311.026V308.936L208.08 306.274L207.992 303.612V300.752H210.61V310.718C210.61 312.845 210.068 314.407 208.982 315.404C207.897 316.416 206.328 316.922 204.274 316.922ZM203.922 311.972C202.808 311.972 201.796 311.737 200.886 311.268C199.992 310.784 199.28 310.117 198.752 309.266C198.239 308.415 197.982 307.418 197.982 306.274C197.982 305.145 198.239 304.155 198.752 303.304C199.28 302.453 199.992 301.793 200.886 301.324C201.796 300.855 202.808 300.62 203.922 300.62C204.92 300.62 205.814 300.818 206.606 301.214C207.398 301.61 208.029 302.226 208.498 303.062C208.982 303.898 209.224 304.969 209.224 306.274C209.224 307.579 208.982 308.657 208.498 309.508C208.029 310.344 207.398 310.967 206.606 311.378C205.814 311.774 204.92 311.972 203.922 311.972ZM204.34 309.64C205.03 309.64 205.646 309.501 206.188 309.222C206.731 308.929 207.149 308.533 207.442 308.034C207.75 307.521 207.904 306.934 207.904 306.274C207.904 305.614 207.75 305.035 207.442 304.536C207.149 304.023 206.731 303.634 206.188 303.37C205.646 303.091 205.03 302.952 204.34 302.952C203.651 302.952 203.028 303.091 202.47 303.37C201.928 303.634 201.502 304.023 201.194 304.536C200.901 305.035 200.754 305.614 200.754 306.274C200.754 306.934 200.901 307.521 201.194 308.034C201.502 308.533 201.928 308.929 202.47 309.222C203.028 309.501 203.651 309.64 204.34 309.64Z" fill="#EEEEEE"/>
<path d="M55.9941 330.34C57.2608 330.34 58.3275 330.613 59.1941 331.16C60.0741 331.707 60.7408 332.5 61.1941 333.54C61.6475 334.567 61.8741 335.827 61.8741 337.32C61.8741 338.907 61.5941 340.247 61.0341 341.34C60.4741 342.433 59.7008 343.26 58.7141 343.82C57.7275 344.38 56.5741 344.66 55.2541 344.66C54.6008 344.66 53.9675 344.593 53.3541 344.46C52.7541 344.327 52.2275 344.12 51.7741 343.84L52.5341 342.28C52.9075 342.52 53.3208 342.693 53.7741 342.8C54.2408 342.893 54.7275 342.94 55.2341 342.94C56.6475 342.94 57.7741 342.5 58.6141 341.62C59.4541 340.727 59.8741 339.407 59.8741 337.66C59.8741 337.38 59.8608 337.047 59.8341 336.66C59.8075 336.273 59.7475 335.893 59.6541 335.52L60.3141 336.2C60.1275 336.813 59.8141 337.333 59.3741 337.76C58.9475 338.173 58.4275 338.487 57.8141 338.7C57.2141 338.9 56.5541 339 55.8341 339C54.9141 339 54.0941 338.827 53.3741 338.48C52.6541 338.133 52.0875 337.647 51.6741 337.02C51.2608 336.38 51.0541 335.627 51.0541 334.76C51.0541 333.853 51.2675 333.073 51.6941 332.42C52.1341 331.753 52.7275 331.24 53.4741 330.88C54.2341 330.52 55.0741 330.34 55.9941 330.34ZM56.0741 331.96C55.4741 331.96 54.9408 332.073 54.4741 332.3C54.0075 332.527 53.6408 332.84 53.3741 333.24C53.1208 333.64 52.9941 334.12 52.9941 334.68C52.9941 335.507 53.2808 336.167 53.8541 336.66C54.4275 337.14 55.2008 337.38 56.1741 337.38C56.8141 337.38 57.3741 337.26 57.8541 337.02C58.3475 336.78 58.7275 336.453 58.9941 336.04C59.2741 335.627 59.4141 335.167 59.4141 334.66C59.4141 334.167 59.2875 333.72 59.0341 333.32C58.7808 332.92 58.4075 332.593 57.9141 332.34C57.4208 332.087 56.8075 331.96 56.0741 331.96ZM65.1179 336.54C64.7446 336.54 64.4246 336.413 64.1579 336.16C63.8912 335.893 63.7579 335.56 63.7579 335.16C63.7579 334.76 63.8912 334.433 64.1579 334.18C64.4246 333.927 64.7446 333.8 65.1179 333.8C65.4779 333.8 65.7846 333.927 66.0379 334.18C66.3046 334.433 66.4379 334.76 66.4379 335.16C66.4379 335.56 66.3046 335.893 66.0379 336.16C65.7846 336.413 65.4779 336.54 65.1179 336.54ZM65.1179 344.62C64.7446 344.62 64.4246 344.493 64.1579 344.24C63.8912 343.973 63.7579 343.64 63.7579 343.24C63.7579 342.84 63.8912 342.513 64.1579 342.26C64.4246 342.007 64.7446 341.88 65.1179 341.88C65.4779 341.88 65.7846 342.007 66.0379 342.26C66.3046 342.513 66.4379 342.84 66.4379 343.24C66.4379 343.64 66.3046 343.973 66.0379 344.24C65.7846 344.493 65.4779 344.62 65.1179 344.62ZM72.6091 344.66C71.6225 344.66 70.6625 344.507 69.7291 344.2C68.8091 343.893 68.0558 343.48 67.4691 342.96L68.3891 341.38C68.8558 341.82 69.4625 342.18 70.2091 342.46C70.9558 342.74 71.7558 342.88 72.6091 342.88C73.6491 342.88 74.4558 342.66 75.0291 342.22C75.6158 341.767 75.9091 341.16 75.9091 340.4C75.9091 339.667 75.6291 339.08 75.0691 338.64C74.5225 338.187 73.6491 337.96 72.4491 337.96H71.3291V336.56L75.4891 331.44L75.7691 332.24H68.1091V330.5H77.3491V331.86L73.2091 336.96L72.1691 336.34H72.8291C74.5225 336.34 75.7891 336.72 76.6291 337.48C77.4825 338.24 77.9091 339.207 77.9091 340.38C77.9091 341.167 77.7158 341.887 77.3291 342.54C76.9425 343.193 76.3558 343.713 75.5691 344.1C74.7958 344.473 73.8091 344.66 72.6091 344.66ZM85.4945 344.66C84.4011 344.66 83.4211 344.38 82.5545 343.82C81.7011 343.26 81.0211 342.447 80.5145 341.38C80.0211 340.313 79.7745 339.02 79.7745 337.5C79.7745 335.98 80.0211 334.687 80.5145 333.62C81.0211 332.553 81.7011 331.74 82.5545 331.18C83.4211 330.62 84.4011 330.34 85.4945 330.34C86.5745 330.34 87.5478 330.62 88.4145 331.18C89.2811 331.74 89.9611 332.553 90.4545 333.62C90.9478 334.687 91.1945 335.98 91.1945 337.5C91.1945 339.02 90.9478 340.313 90.4545 341.38C89.9611 342.447 89.2811 343.26 88.4145 343.82C87.5478 344.38 86.5745 344.66 85.4945 344.66ZM85.4945 342.88C86.2278 342.88 86.8678 342.68 87.4145 342.28C87.9745 341.88 88.4078 341.28 88.7145 340.48C89.0345 339.68 89.1945 338.687 89.1945 337.5C89.1945 336.313 89.0345 335.32 88.7145 334.52C88.4078 333.72 87.9745 333.12 87.4145 332.72C86.8678 332.32 86.2278 332.12 85.4945 332.12C84.7611 332.12 84.1145 332.32 83.5545 332.72C82.9945 333.12 82.5545 333.72 82.2345 334.52C81.9278 335.32 81.7745 336.313 81.7745 337.5C81.7745 338.687 81.9278 339.68 82.2345 340.48C82.5545 341.28 82.9945 341.88 83.5545 342.28C84.1145 342.68 84.7611 342.88 85.4945 342.88ZM98.6654 339.84V338.18H104.045V339.84H98.6654ZM113.873 344.5V331.3L114.733 332.24H110.713V330.5H115.853V344.5H113.873ZM124.635 344.66C123.542 344.66 122.562 344.38 121.695 343.82C120.842 343.26 120.162 342.447 119.655 341.38C119.162 340.313 118.915 339.02 118.915 337.5C118.915 335.98 119.162 334.687 119.655 333.62C120.162 332.553 120.842 331.74 121.695 331.18C122.562 330.62 123.542 330.34 124.635 330.34C125.715 330.34 126.688 330.62 127.555 331.18C128.422 331.74 129.102 332.553 129.595 333.62C130.088 334.687 130.335 335.98 130.335 337.5C130.335 339.02 130.088 340.313 129.595 341.38C129.102 342.447 128.422 343.26 127.555 343.82C126.688 344.38 125.715 344.66 124.635 344.66ZM124.635 342.88C125.368 342.88 126.008 342.68 126.555 342.28C127.115 341.88 127.548 341.28 127.855 340.48C128.175 339.68 128.335 338.687 128.335 337.5C128.335 336.313 128.175 335.32 127.855 334.52C127.548 333.72 127.115 333.12 126.555 332.72C126.008 332.32 125.368 332.12 124.635 332.12C123.902 332.12 123.255 332.32 122.695 332.72C122.135 333.12 121.695 333.72 121.375 334.52C121.068 335.32 120.915 336.313 120.915 337.5C120.915 338.687 121.068 339.68 121.375 340.48C121.695 341.28 122.135 341.88 122.695 342.28C123.255 342.68 123.902 342.88 124.635 342.88ZM133.575 336.54C133.202 336.54 132.882 336.413 132.615 336.16C132.348 335.893 132.215 335.56 132.215 335.16C132.215 334.76 132.348 334.433 132.615 334.18C132.882 333.927 133.202 333.8 133.575 333.8C133.935 333.8 134.242 333.927 134.495 334.18C134.762 334.433 134.895 334.76 134.895 335.16C134.895 335.56 134.762 335.893 134.495 336.16C134.242 336.413 133.935 336.54 133.575 336.54ZM133.575 344.62C133.202 344.62 132.882 344.493 132.615 344.24C132.348 343.973 132.215 343.64 132.215 343.24C132.215 342.84 132.348 342.513 132.615 342.26C132.882 342.007 133.202 341.88 133.575 341.88C133.935 341.88 134.242 342.007 134.495 342.26C134.762 342.513 134.895 342.84 134.895 343.24C134.895 343.64 134.762 343.973 134.495 344.24C134.242 344.493 133.935 344.62 133.575 344.62ZM142.506 344.66C141.413 344.66 140.433 344.38 139.566 343.82C138.713 343.26 138.033 342.447 137.526 341.38C137.033 340.313 136.786 339.02 136.786 337.5C136.786 335.98 137.033 334.687 137.526 333.62C138.033 332.553 138.713 331.74 139.566 331.18C140.433 330.62 141.413 330.34 142.506 330.34C143.586 330.34 144.56 330.62 145.426 331.18C146.293 331.74 146.973 332.553 147.466 333.62C147.96 334.687 148.206 335.98 148.206 337.5C148.206 339.02 147.96 340.313 147.466 341.38C146.973 342.447 146.293 343.26 145.426 343.82C144.56 344.38 143.586 344.66 142.506 344.66ZM142.506 342.88C143.24 342.88 143.88 342.68 144.426 342.28C144.986 341.88 145.42 341.28 145.726 340.48C146.046 339.68 146.206 338.687 146.206 337.5C146.206 336.313 146.046 335.32 145.726 334.52C145.42 333.72 144.986 333.12 144.426 332.72C143.88 332.32 143.24 332.12 142.506 332.12C141.773 332.12 141.126 332.32 140.566 332.72C140.006 333.12 139.566 333.72 139.246 334.52C138.94 335.32 138.786 336.313 138.786 337.5C138.786 338.687 138.94 339.68 139.246 340.48C139.566 341.28 140.006 341.88 140.566 342.28C141.126 342.68 141.773 342.88 142.506 342.88ZM155.846 344.66C154.753 344.66 153.773 344.38 152.906 343.82C152.053 343.26 151.373 342.447 150.866 341.38C150.373 340.313 150.126 339.02 150.126 337.5C150.126 335.98 150.373 334.687 150.866 333.62C151.373 332.553 152.053 331.74 152.906 331.18C153.773 330.62 154.753 330.34 155.846 330.34C156.926 330.34 157.899 330.62 158.766 331.18C159.633 331.74 160.313 332.553 160.806 333.62C161.299 334.687 161.546 335.98 161.546 337.5C161.546 339.02 161.299 340.313 160.806 341.38C160.313 342.447 159.633 343.26 158.766 343.82C157.899 344.38 156.926 344.66 155.846 344.66ZM155.846 342.88C156.579 342.88 157.219 342.68 157.766 342.28C158.326 341.88 158.759 341.28 159.066 340.48C159.386 339.68 159.546 338.687 159.546 337.5C159.546 336.313 159.386 335.32 159.066 334.52C158.759 333.72 158.326 333.12 157.766 332.72C157.219 332.32 156.579 332.12 155.846 332.12C155.113 332.12 154.466 332.32 153.906 332.72C153.346 333.12 152.906 333.72 152.586 334.52C152.279 335.32 152.126 336.313 152.126 337.5C152.126 338.687 152.279 339.68 152.586 340.48C152.906 341.28 153.346 341.88 153.906 342.28C154.466 342.68 155.113 342.88 155.846 342.88Z" fill="#CABFB9"/>
<path d="M0.5 1L412.5 1L412.5 393L0.5 393L0.5 1Z" stroke="url(#paint3_linear_2570_248579)"/>
<defs>
<linearGradient id="paint0_linear_2570_248579" x1="-0.444312" y1="2359.27" x2="418.791" y2="2359.27" gradientUnits="userSpaceOnUse">
<stop offset="0.559499" stop-color="#004EE7"/>
<stop offset="1" stop-color="#004EE7" stop-opacity="0"/>
</linearGradient>
<linearGradient id="paint1_linear_2570_248579" x1="206.5" y1="0.5" x2="206.5" y2="393.5" gradientUnits="userSpaceOnUse">
<stop stop-color="#1A2433"/>
<stop offset="1" stop-color="#20475E"/>
</linearGradient>
<linearGradient id="paint2_linear_2570_248579" x1="-0.444312" y1="2359.27" x2="418.791" y2="2359.27" gradientUnits="userSpaceOnUse">
<stop offset="0.559499" stop-color="#004EE7"/>
<stop offset="1" stop-color="#004EE7" stop-opacity="0"/>
</linearGradient>
<linearGradient id="paint3_linear_2570_248579" x1="-0.444312" y1="2359.27" x2="418.791" y2="2359.27" gradientUnits="userSpaceOnUse">
<stop offset="0.559499" stop-color="#00816E"/>
<stop offset="1" stop-color="#007B6A" stop-opacity="0"/>
</linearGradient>
</defs>
</svg>
