<svg width="48" height="48" viewBox="0 0 48 48" fill="none" xmlns="http://www.w3.org/2000/svg">
<mask id="mask0_3986_11975" style="mask-type:alpha" maskUnits="userSpaceOnUse" x="15" y="0" width="17" height="48">
<path fill-rule="evenodd" clip-rule="evenodd" d="M15.2814 24.0002L23.5739 0.781303L31.8663 24.0002L26.8463 24.0002C26.8463 24.0001 26.8463 24 26.8463 24C26.8463 22.1596 25.3811 20.6678 23.5737 20.6678C21.7662 20.6678 20.301 22.1596 20.301 24C20.301 24 20.301 24.0001 20.301 24.0002L15.2814 24.0002ZM20.301 24.0002C20.301 24.0002 20.301 24.0002 20.301 24.0002L26.8463 24.0002C26.8463 24.0002 26.8463 24.0002 26.8463 24.0002L20.301 24.0002ZM20.301 24.0002C20.3011 25.8404 21.7663 27.3322 23.5737 27.3322C25.381 27.3322 26.8462 25.8404 26.8463 24.0002L31.8662 24.0002L23.5737 47.2191L15.2812 24.0002L20.301 24.0002Z" fill="#D9D9D9"/>
</mask>
<g mask="url(#mask0_3986_11975)">
<path d="M15.2812 24.0002L23.5737 0.781303L31.8662 24.0002L15.2812 24.0002Z" fill="#8C8C8C"/>
<path d="M23.5742 24L23.5742 0.781137L31.8667 24L23.5742 24Z" fill="#F0F0F0"/>
<path d="M31.8662 24.0002L23.5738 47.2191L15.2813 24.0002L31.8662 24.0002Z" fill="#FF0000"/>
<path d="M23.5742 24.0002L23.5742 47.2191L15.2818 24.0002L23.5742 24.0002Z" fill="#B40005"/>
</g>
</svg>
