<svg width="50" height="51" viewBox="0 0 50 51" fill="none" xmlns="http://www.w3.org/2000/svg">
<mask id="mask0_3986_13394" style="mask-type:alpha" maskUnits="userSpaceOnUse" x="15" y="1" width="19" height="49">
<path fill-rule="evenodd" clip-rule="evenodd" d="M15.8664 25.5002L24.5537 1.17565L33.2411 25.5002L27.982 25.5002C27.982 25.5001 27.982 25.5 27.982 25.5C27.982 23.572 26.447 22.0091 24.5535 22.0091C22.66 22.0091 21.125 23.572 21.125 25.5C21.125 25.5 21.125 25.5001 21.125 25.5002L15.8664 25.5002ZM21.125 25.5002C21.125 25.5002 21.125 25.5002 21.125 25.5002L27.982 25.5002C27.982 25.5002 27.982 25.5002 27.982 25.5002L21.125 25.5002ZM21.125 25.5002C21.1251 27.4281 22.66 28.9908 24.5535 28.9908C26.4469 28.9908 27.9819 27.4281 27.982 25.5002L33.2409 25.5002L24.5535 49.8247L15.8662 25.5002L21.125 25.5002Z" fill="#D9D9D9"/>
</mask>
<g mask="url(#mask0_3986_13394)">
<path d="M15.8662 25.5002L24.5535 1.17565L33.2409 25.5002L15.8662 25.5002Z" fill="#D9D9D9"/>
<path d="M24.5537 25.5L24.5537 1.17548L33.241 25.5L24.5537 25.5Z" fill="#CABFB9"/>
<path d="M33.2412 25.5002L24.5539 49.8247L15.8665 25.5002L33.2412 25.5002Z" fill="#FF0000"/>
<path d="M24.5537 25.5002L24.5537 49.8247L15.8664 25.5002L24.5537 25.5002Z" fill="#B40005"/>
</g>
</svg>
