<svg width="64" height="64" viewBox="0 0 64 64" fill="none" xmlns="http://www.w3.org/2000/svg">
<path d="M46.7061 34.5619C46.2589 34.4226 45.7747 34.4656 45.3591 34.6817C44.9435 34.8978 44.6302 35.2695 44.4875 35.7156C43.649 38.2795 42.0142 40.5089 39.8212 42.0794C37.6281 43.65 34.9911 44.4799 32.2938 44.4482C28.9575 44.4862 25.7424 43.1995 23.3535 40.8704C20.9645 38.5413 19.5966 35.3599 19.5498 32.0238C19.5966 28.6877 20.9645 25.5063 23.3535 23.1772C25.7424 20.8481 28.9575 19.5614 32.2938 19.5993C35.3068 19.5921 38.2272 20.6409 40.5472 22.5635L36.6956 21.9245C36.4648 21.8865 36.2287 21.8945 36.001 21.9481C35.7732 22.0017 35.5584 22.0997 35.3687 22.2366C35.179 22.3735 35.0182 22.5466 34.8956 22.7459C34.7731 22.9451 34.6911 23.1666 34.6544 23.3977C34.6164 23.6285 34.6245 23.8646 34.678 24.0923C34.7316 24.32 34.8297 24.5349 34.9666 24.7246C35.1035 24.9143 35.2765 25.075 35.4758 25.1976C35.675 25.3202 35.8966 25.4022 36.1276 25.4388L43.6533 26.6813H43.955C44.1608 26.681 44.365 26.645 44.5585 26.5748C44.6235 26.5501 44.6836 26.514 44.736 26.4683C44.8632 26.421 44.9828 26.3552 45.091 26.2731L45.2507 26.0778C45.2507 25.9891 45.4104 25.9181 45.4814 25.8116C45.5524 25.7051 45.4814 25.6341 45.5702 25.5631C45.6192 25.4597 45.6608 25.3529 45.6944 25.2436L47.0256 18.1439C47.0699 17.9108 47.0679 17.6713 47.0196 17.439C46.9713 17.2067 46.8777 16.9862 46.7442 16.7901C46.6107 16.5939 46.4399 16.426 46.2415 16.2959C46.0431 16.1658 45.821 16.076 45.5879 16.0318C45.3549 15.9875 45.1153 15.9895 44.883 16.0378C44.6507 16.0861 44.4302 16.1797 44.2341 16.3132C43.838 16.5828 43.5652 16.9987 43.4758 17.4694L42.9966 20.0431C40.0253 17.4681 36.2255 16.0503 32.2938 16.0495C28.0161 16.0116 23.8981 17.6723 20.8434 20.6671C17.7887 23.6619 16.0468 27.7462 16 32.0238C16.0468 36.3014 17.7887 40.3857 20.8434 43.3805C23.8981 46.3753 28.0161 48.0359 32.2938 47.9981C35.7605 48.0514 39.1526 46.9902 41.9709 44.9707C44.7891 42.9513 46.8845 40.0804 47.9486 36.7806C48.0159 36.5533 48.037 36.3149 48.0107 36.0794C47.9844 35.8438 47.9112 35.6159 47.7954 35.4092C47.6796 35.2024 47.5236 35.0209 47.3365 34.8753C47.1494 34.7298 46.9351 34.6233 46.7061 34.5619Z" fill="white"/>
</svg>
