<svg width="65" height="65" viewBox="0 0 65 65" fill="none" xmlns="http://www.w3.org/2000/svg">
<path d="M53.073 31.6809L33.073 17.6809C32.768 17.4679 32.369 17.4419 32.038 17.6129C31.708 17.7849 31.5 18.1269 31.5 18.4999V30.5799L13.073 17.6809C12.768 17.4679 12.369 17.4419 12.038 17.6129C11.708 17.7849 11.5 18.1269 11.5 18.4999V46.4999C11.5 46.8729 11.708 47.2149 12.038 47.3869C12.184 47.4629 12.342 47.4999 12.5 47.4999C12.702 47.4999 12.902 47.4389 13.073 47.3189L31.5 34.4209V46.4999C31.5 46.8729 31.708 47.2149 32.038 47.3869C32.184 47.4629 32.342 47.4999 32.5 47.4999C32.702 47.4999 32.902 47.4389 33.073 47.3189L53.073 33.3189C53.341 33.1319 53.5 32.8259 53.5 32.4999C53.5 32.1739 53.341 31.8679 53.073 31.6809Z" fill="#141524"/>
</svg>
