<svg width="97" height="96" viewBox="0 0 97 96" fill="none" xmlns="http://www.w3.org/2000/svg">
<path d="M48.6045 78C56.561 78 64.1916 74.8393 69.8177 69.2132C75.4438 63.5871 78.6045 55.9565 78.6045 48C78.6045 40.0435 75.4438 32.4129 69.8177 26.7868C64.1916 21.1607 56.561 18 48.6045 18C40.648 18 33.0174 21.1607 27.3913 26.7868C21.7652 32.4129 18.6045 40.0435 18.6045 48C18.6045 55.9565 21.7652 63.5871 27.3913 69.2132C33.0174 74.8393 40.648 78 48.6045 78Z" fill="#090B0A"/>
<path d="M48.6045 74.25C41.6426 74.25 34.9658 71.4844 30.0429 66.5616C25.1201 61.6387 22.3545 54.9619 22.3545 48C22.3545 41.0381 25.1201 34.3613 30.0429 29.4384C34.9658 24.5156 41.6426 21.75 48.6045 21.75C55.5664 21.75 62.2432 24.5156 67.166 29.4384C72.0889 34.3613 74.8545 41.0381 74.8545 48C74.8545 54.9619 72.0889 61.6387 67.166 66.5616C62.2432 71.4844 55.5664 74.25 48.6045 74.25ZM48.6045 78C56.561 78 64.1916 74.8393 69.8177 69.2132C75.4438 63.5871 78.6045 55.9565 78.6045 48C78.6045 40.0435 75.4438 32.4129 69.8177 26.7868C64.1916 21.1607 56.561 18 48.6045 18C40.648 18 33.0174 21.1607 27.3913 26.7868C21.7652 32.4129 18.6045 40.0435 18.6045 48C18.6045 55.9565 21.7652 63.5871 27.3913 69.2132C33.0174 74.8393 40.648 78 48.6045 78Z" fill="white"/>
<path d="M42.1207 36.9561C42.4274 36.7981 42.7717 36.7279 43.1158 36.753C43.4598 36.7782 43.7903 36.8977 44.0707 37.0986L57.1957 46.4736C57.4388 46.647 57.6369 46.876 57.7736 47.1415C57.9103 47.4069 57.9816 47.7012 57.9816 47.9998C57.9816 48.2984 57.9103 48.5927 57.7736 48.8582C57.6369 49.1236 57.4388 49.3526 57.1957 49.5261L44.0707 58.9011C43.7904 59.1017 43.4601 59.2212 43.1162 59.2464C42.7724 59.2715 42.4282 59.2013 42.1216 59.0436C41.815 58.8858 41.5579 58.6466 41.3785 58.3522C41.199 58.0578 41.1042 57.7196 41.1045 57.3748V38.6248C41.1041 38.2801 41.1988 37.942 41.3781 37.6476C41.5574 37.3532 41.8143 37.1139 42.1207 36.9561Z" fill="white"/>
</svg>
