<svg width="65" height="65" viewBox="0 0 65 65" fill="none" xmlns="http://www.w3.org/2000/svg">
<path d="M28.0861 7.12072V57.8793C28.0861 58.4646 27.8536 59.026 27.4397 59.4399C27.0258 59.8537 26.4645 60.0862 25.8792 60.0862H17.0516C16.4663 60.0862 15.905 59.8537 15.4911 59.4399C15.0772 59.026 14.8447 58.4646 14.8447 57.8793V7.12072C14.8447 6.53541 15.0772 5.97408 15.4911 5.5602C15.905 5.14633 16.4663 4.91382 17.0516 4.91382H25.8792C26.4645 4.91382 27.0258 5.14633 27.4397 5.5602C27.8536 5.97408 28.0861 6.53541 28.0861 7.12072ZM50.1551 7.12072V57.8793C50.1551 58.4646 49.9226 59.026 49.5087 59.4399C49.0948 59.8537 48.5335 60.0862 47.9482 60.0862H39.1206C38.5353 60.0862 37.974 59.8537 37.5601 59.4399C37.1462 59.026 36.9137 58.4646 36.9137 57.8793V7.12072C36.9137 6.53541 37.1462 5.97408 37.5601 5.5602C37.974 5.14633 38.5353 4.91382 39.1206 4.91382H47.9482C48.5335 4.91382 49.0948 5.14633 49.5087 5.5602C49.9226 5.97408 50.1551 6.53541 50.1551 7.12072Z" fill="#141524"/>
</svg>
