<svg width="97" height="96" viewBox="0 0 97 96" fill="none" xmlns="http://www.w3.org/2000/svg">
<path d="M48.6045 78C56.561 78 64.1916 74.8393 69.8177 69.2132C75.4438 63.5871 78.6045 55.9565 78.6045 48C78.6045 40.0435 75.4438 32.4129 69.8177 26.7868C64.1916 21.1607 56.561 18 48.6045 18C40.648 18 33.0174 21.1607 27.3913 26.7868C21.7652 32.4129 18.6045 40.0435 18.6045 48C18.6045 55.9565 21.7652 63.5871 27.3913 69.2132C33.0174 74.8393 40.648 78 48.6045 78Z" fill="#090B0A"/>
<path d="M48.6045 74.25C41.6426 74.25 34.9658 71.4844 30.0429 66.5616C25.1201 61.6387 22.3545 54.9619 22.3545 48C22.3545 41.0381 25.1201 34.3613 30.0429 29.4384C34.9658 24.5156 41.6426 21.75 48.6045 21.75C55.5664 21.75 62.2432 24.5156 67.166 29.4384C72.0889 34.3613 74.8545 41.0381 74.8545 48C74.8545 54.9619 72.0889 61.6387 67.166 66.5616C62.2432 71.4844 55.5664 74.25 48.6045 74.25ZM48.6045 78C56.561 78 64.1916 74.8393 69.8177 69.2132C75.4438 63.5871 78.6045 55.9565 78.6045 48C78.6045 40.0435 75.4438 32.4129 69.8177 26.7868C64.1916 21.1607 56.561 18 48.6045 18C40.648 18 33.0174 21.1607 27.3913 26.7868C21.7652 32.4129 18.6045 40.0435 18.6045 48C18.6045 55.9565 21.7652 63.5871 27.3913 69.2132C33.0174 74.8393 40.648 78 48.6045 78Z" fill="white"/>
<rect x="37.6045" y="36.748" width="8" height="24" rx="1" fill="white"/>
<rect x="51.6045" y="36.748" width="8" height="24" rx="1" fill="white"/>
</svg>
