<svg width="48" height="48" viewBox="0 0 48 48" fill="none" xmlns="http://www.w3.org/2000/svg">
<path fill-rule="evenodd" clip-rule="evenodd" d="M29.4331 19.0284C29.4331 25.069 24.6237 29.9659 18.6909 29.9659C12.7582 29.9659 7.94873 25.069 7.94873 19.0284C7.94873 12.9878 12.7582 8.09092 18.6909 8.09092C24.6237 8.09092 29.4331 12.9878 29.4331 19.0284ZM27.5759 30.8873C25.1115 32.8044 22.0318 33.9432 18.6909 33.9432C10.6008 33.9432 4.04248 27.2656 4.04248 19.0284C4.04248 10.7912 10.6008 4.11365 18.6909 4.11365C26.781 4.11365 33.3394 10.7912 33.3394 19.0284C33.3394 22.4301 32.2209 25.5657 30.3381 28.075L40.0179 37.9308C40.4049 38.3248 40.4049 38.9637 40.0179 39.3577L38.6572 40.7432C38.2702 41.1372 37.6427 41.1372 37.2558 40.7432L27.5759 30.8873Z" fill="#8C8C8C"/>
</svg>
