<svg width="50" height="51" viewBox="0 0 50 51" fill="none" xmlns="http://www.w3.org/2000/svg">
<path fill-rule="evenodd" clip-rule="evenodd" d="M30.6915 20.2915C30.6915 26.6198 25.653 31.7498 19.4378 31.7498C13.2225 31.7498 8.18406 26.6198 8.18406 20.2915C8.18406 13.9632 13.2225 8.83317 19.4378 8.83317C25.653 8.83317 30.6915 13.9632 30.6915 20.2915ZM28.7459 32.7151C26.1641 34.7235 22.9378 35.9165 19.4378 35.9165C10.9624 35.9165 4.0918 28.921 4.0918 20.2915C4.0918 11.6621 10.9624 4.6665 19.4378 4.6665C27.9131 4.6665 34.7838 11.6621 34.7838 20.2915C34.7838 23.8551 33.6121 27.1401 31.6395 29.7688L41.8137 40.128C42.2007 40.522 42.2007 41.1609 41.8137 41.5549L40.3214 43.0743C39.9344 43.4683 39.307 43.4683 38.92 43.0743L28.7459 32.7151Z" fill="white"/>
</svg>
