<svg width="50" height="50" viewBox="0 0 50 50" fill="none" xmlns="http://www.w3.org/2000/svg">
<path fill-rule="evenodd" clip-rule="evenodd" d="M14.0632 16.9652L8.78929 16.9652C7.65925 16.9652 6.74316 17.8979 6.74316 19.0485L6.74316 30.9533C6.74316 32.1039 7.65925 33.0366 8.78929 33.0366L14.0632 33.0366C14.6159 33.0366 15.145 33.2643 15.5303 33.6677L21.6451 40.0716C22.9256 41.4126 25.1583 40.4896 25.1583 38.6194L25.1583 11.3824C25.1583 9.51221 22.9256 8.58925 21.6451 9.9302L15.5303 16.3341C15.145 16.7376 14.6159 16.9652 14.0632 16.9652ZM29.8499 17.2778C30.649 16.4642 31.9445 16.4642 32.7436 17.2778L31.2967 18.7509C32.7436 17.2778 32.7443 17.2785 32.745 17.2792L32.7465 17.2808L32.7496 17.284L32.7564 17.291L32.7722 17.3074L32.8124 17.3505C32.8429 17.3836 32.8807 17.4256 32.9245 17.4767C33.0122 17.5787 33.1247 17.717 33.2533 17.8915C33.5103 18.2404 33.8333 18.7369 34.1499 19.3817C34.7866 20.6782 35.389 22.5577 35.389 25.0009C35.389 27.4442 34.7866 29.3237 34.1499 30.6201C33.8333 31.2649 33.5103 31.7614 33.2533 32.1103C33.1247 32.2849 33.0122 32.4231 32.9245 32.5251C32.8807 32.5762 32.8429 32.6183 32.8124 32.6514L32.7722 32.6944L32.7564 32.7109L32.7496 32.7179L32.7465 32.7211L32.745 32.7226C32.7443 32.7233 32.7436 32.7241 31.2967 31.2509L32.7436 32.7241C31.9445 33.5377 30.649 33.5377 29.8499 32.7241C29.0577 31.9175 29.0509 30.614 29.8295 29.7988L29.8295 29.7988L29.8448 29.7814C29.869 29.7532 29.9163 29.6961 29.9795 29.6103C30.1062 29.4383 30.2948 29.1536 30.4897 28.7567C30.8761 27.9698 31.2967 26.7243 31.2967 25.0009C31.2967 23.2775 30.8761 22.032 30.4897 21.2451C30.2948 20.8483 30.1062 20.5635 29.9795 20.3915C29.9163 20.3057 29.869 20.2486 29.8448 20.2205L29.8295 20.203C29.0509 19.3879 29.0577 18.0844 29.8499 17.2778ZM39.007 11.1672C38.2836 10.2833 36.9933 10.1639 36.1252 10.9004C35.2575 11.6367 35.1391 12.9486 35.8615 13.8325L35.8597 13.8303L35.8784 13.854C35.8979 13.879 35.9311 13.9223 35.9762 13.9833C36.0663 14.1053 36.2034 14.2974 36.3721 14.555C36.7099 15.0709 37.1706 15.8435 37.6339 16.8341C38.5629 18.8205 39.4813 21.6376 39.4813 25.0009C39.4813 28.3642 38.5629 31.1813 37.6339 33.1677C37.1706 34.1583 36.7099 34.9309 36.3721 35.4468C36.2034 35.7044 36.0663 35.8966 35.9762 36.0186C35.9311 36.0795 35.8979 36.1228 35.8784 36.1478L35.8611 36.1698C35.14 37.0537 35.2579 38.3655 36.1252 39.1014C36.9933 39.838 38.2836 39.7185 39.007 38.8346L37.4351 37.5009C39.007 38.8346 39.0086 38.8327 39.0091 38.8321L39.0115 38.8291L39.0176 38.8216L39.034 38.8012L39.0838 38.738C39.1242 38.6862 39.1789 38.6147 39.2458 38.5243C39.3794 38.3435 39.562 38.0865 39.777 37.7581C40.2065 37.1022 40.7688 36.156 41.3286 34.9591C42.4457 32.5705 43.5735 29.1376 43.5735 25.0009C43.5735 20.8642 42.4457 17.4313 41.3286 15.0427C40.7688 13.8458 40.2065 12.8997 39.777 12.2437C39.562 11.9153 39.3794 11.6583 39.2458 11.4775C39.1789 11.3871 39.1242 11.3157 39.0838 11.2638L39.034 11.2006L39.0176 11.1802L39.0115 11.1727L39.0091 11.1697L39.007 11.1672ZM37.4351 12.5009C39.007 11.1672 39.0065 11.1666 39.007 11.1672L37.4351 12.5009Z" fill="#F8F8F8"/>
</svg>
