<svg width="50" height="50" viewBox="0 0 50 50" fill="none" xmlns="http://www.w3.org/2000/svg">
<g clip-path="url(#clip0_3652_46530)">
<path d="M14.0632 16.9652L8.78929 16.9652C7.65925 16.9652 6.74316 17.8979 6.74316 19.0485L6.74316 30.9533C6.74316 32.1039 7.65925 33.0366 8.78929 33.0366L14.0632 33.0366C14.6159 33.0366 15.145 33.2643 15.5303 33.6677L21.6451 40.0716C22.9256 41.4126 25.1583 40.4896 25.1583 38.6194L25.1583 11.3824C25.1583 9.51221 22.9256 8.58925 21.6451 9.9302L15.5303 16.3341C15.145 16.7376 14.6159 16.9652 14.0632 16.9652Z" fill="#F8F8F8"/>
<path fill-rule="evenodd" clip-rule="evenodd" d="M43.8182 20.8995C44.5992 20.1185 44.5992 18.8521 43.8182 18.0711C43.0371 17.29 41.7708 17.29 40.9897 18.0711L36.7471 22.3137L32.5045 18.071C31.7234 17.29 30.4571 17.29 29.676 18.071C28.895 18.8521 28.895 20.1184 29.676 20.8995L33.9187 25.1421L29.676 29.3848C28.895 30.1658 28.895 31.4322 29.676 32.2132C30.4571 32.9943 31.7234 32.9943 32.5045 32.2132L36.7471 27.9706L40.9897 32.2132C41.7708 32.9942 43.0371 32.9942 43.8182 32.2132C44.5992 31.4321 44.5992 30.1658 43.8182 29.3848L39.5755 25.1421L43.8182 20.8995Z" fill="white"/>
</g>
<defs>
<clipPath id="clip0_3652_46530">
<rect width="49.1071" height="50" fill="white" transform="translate(0.604492)"/>
</clipPath>
</defs>
</svg>
