<svg width="48" height="48" viewBox="0 0 48 48" fill="none" xmlns="http://www.w3.org/2000/svg">
<path fill-rule="evenodd" clip-rule="evenodd" d="M12.9834 16.3294L7.94922 16.3294C6.87054 16.3294 5.99609 17.2198 5.99609 18.3181L5.99609 29.6817C5.99609 30.78 6.87054 31.6704 7.94922 31.6704L12.9834 31.6704C13.511 31.6704 14.0161 31.8876 14.3838 32.2728L20.2207 38.3856C21.4429 39.6656 23.5742 38.7846 23.5742 36.9994L23.5742 11.0004C23.5742 9.21522 21.4429 8.33422 20.2207 9.61421L14.3838 15.727C14.0161 16.1122 13.511 16.3294 12.9834 16.3294ZM28.0525 16.6278C28.8153 15.8512 30.0519 15.8512 30.8147 16.6278L29.4336 18.034C30.8147 16.6278 30.8153 16.6285 30.816 16.6292L30.8174 16.6307L30.8204 16.6337L30.8269 16.6404L30.842 16.6561L30.8804 16.6972C30.9095 16.7288 30.9455 16.769 30.9874 16.8177C31.0711 16.9151 31.1785 17.047 31.3013 17.2137C31.5466 17.5467 31.8548 18.0206 32.1571 18.6361C32.7648 19.8736 33.3398 21.6677 33.3398 23.9999C33.3398 26.3321 32.7648 28.1262 32.1571 29.3637C31.8548 29.9792 31.5466 30.4531 31.3013 30.7861C31.1785 30.9528 31.0711 31.0847 30.9874 31.1821C30.9455 31.2308 30.9095 31.271 30.8804 31.3026L30.842 31.3437L30.8269 31.3594L30.8204 31.3661L30.8174 31.3691L30.816 31.3706C30.8153 31.3713 30.8147 31.372 29.4336 29.9658L30.8147 31.372C30.0519 32.1486 28.8153 32.1486 28.0525 31.372C27.2963 30.602 27.2898 29.3578 28.033 28.5797L28.0331 28.5797L28.0476 28.5631C28.0708 28.5362 28.1159 28.4817 28.1763 28.3998C28.2972 28.2356 28.4772 27.9638 28.6632 27.585C29.0321 26.8339 29.4336 25.645 29.4336 23.9999C29.4336 22.3548 29.0321 21.1659 28.6632 20.4148C28.4772 20.036 28.2972 19.7642 28.1763 19.6C28.1159 19.5181 28.0708 19.4636 28.0476 19.4367L28.0331 19.4201C27.2898 18.642 27.2963 17.3978 28.0525 16.6278ZM36.7934 10.795C36.1028 9.95125 34.8713 9.83725 34.0426 10.5404C33.2143 11.2432 33.1013 12.4955 33.7909 13.3392L33.7892 13.3371L33.807 13.3597C33.8256 13.3835 33.8573 13.4249 33.9003 13.483C33.9864 13.5995 34.1173 13.783 34.2782 14.0288C34.6007 14.5213 35.0405 15.2587 35.4827 16.2043C36.3695 18.1005 37.2461 20.7894 37.2461 23.9999C37.2461 27.2104 36.3695 29.8993 35.4827 31.7955C35.0405 32.7411 34.6007 33.4785 34.2782 33.971C34.1173 34.2168 33.9864 34.4003 33.9003 34.5167C33.8573 34.5749 33.8256 34.6162 33.807 34.6401L33.7905 34.6611C33.1022 35.5048 33.2147 36.757 34.0426 37.4594C34.8713 38.1625 36.1028 38.0485 36.7934 37.2048L35.293 35.9317C36.7934 37.2048 36.7949 37.203 36.7954 37.2024L36.7977 37.1995L36.8035 37.1924L36.8192 37.1729L36.8667 37.1126C36.9053 37.0631 36.9575 36.9949 37.0213 36.9086C37.1488 36.736 37.3232 36.4907 37.5284 36.1772C37.9384 35.5511 38.4752 34.6479 39.0095 33.5054C40.0758 31.2255 41.1523 27.9485 41.1523 23.9999C41.1523 20.0513 40.0758 16.7743 39.0095 14.4943C38.4752 13.3518 37.9384 12.4487 37.5284 11.8226C37.3232 11.5091 37.1488 11.2637 37.0213 11.0912C36.9575 11.0049 36.9053 10.9367 36.8667 10.8872L36.8192 10.8269L36.8035 10.8074L36.7977 10.8003L36.7954 10.7974L36.7934 10.795ZM35.293 12.0681C36.7934 10.795 36.7929 10.7944 36.7934 10.795L35.293 12.0681Z" fill="#8C8C8C"/>
</svg>
