<svg width="49" height="48" viewBox="0 0 49 48" fill="none" xmlns="http://www.w3.org/2000/svg">
<path d="M12.9834 16.3294L7.94922 16.3294C6.87054 16.3294 5.99609 17.2198 5.99609 18.3181L5.99609 29.6817C5.99609 30.78 6.87054 31.6704 7.94922 31.6704L12.9834 31.6704C13.511 31.6704 14.0161 31.8876 14.3838 32.2728L20.2207 38.3856C21.4429 39.6656 23.5742 38.7846 23.5742 36.9994L23.5742 11.0004C23.5742 9.21522 21.4429 8.33422 20.2207 9.61421L14.3838 15.727C14.0161 16.1122 13.511 16.3294 12.9834 16.3294Z" fill="#8C8C8C"/>
<path fill-rule="evenodd" clip-rule="evenodd" d="M30.0257 31.088C29.2446 31.869 27.9783 31.869 27.1973 31.088C26.4162 30.3069 26.4162 29.0406 27.1973 28.2596L31.44 24.0168L27.1976 19.7744C26.4166 18.9933 26.4166 17.727 27.1976 16.946C27.9787 16.1649 29.245 16.1649 30.026 16.946L34.2684 21.1884L38.511 16.9458C39.292 16.1648 40.5584 16.1648 41.3394 16.9458C42.1204 17.7269 42.1204 18.9932 41.3394 19.7743L37.0969 24.0168L41.3397 28.2597C42.1208 29.0407 42.1208 30.307 41.3397 31.0881C40.5587 31.8691 39.2924 31.8691 38.5113 31.0881L34.2684 26.8452L30.0257 31.088Z" fill="#8C8C8C"/>
</svg>
