<svg width="96" height="120" viewBox="0 0 96 120" fill="none" xmlns="http://www.w3.org/2000/svg">
<path d="M71.0768 22.6154H64.1538V20.3077C64.1538 19.6957 63.9106 19.1087 63.4779 18.6759C63.0451 18.2431 62.4581 18 61.8461 18C61.234 18 60.6471 18.2431 60.2143 18.6759C59.7815 19.1087 59.5384 19.6957 59.5384 20.3077V22.6154H36.4615V20.3077C36.4615 19.6957 36.2183 19.1087 35.7856 18.6759C35.3528 18.2431 34.7658 18 34.1538 18C33.5417 18 32.9548 18.2431 32.522 18.6759C32.0892 19.1087 31.8461 19.6957 31.8461 20.3077V22.6154H24.923C23.6989 22.6154 22.525 23.1016 21.6594 23.9672C20.7939 24.8328 20.3076 26.0067 20.3076 27.2308V73.3846C20.3076 74.6087 20.7939 75.7826 21.6594 76.6482C22.525 77.5137 23.6989 78 24.923 78H71.0768C72.3009 78 73.4749 77.5137 74.3404 76.6482C75.206 75.7826 75.6922 74.6087 75.6922 73.3846V27.2308C75.6922 26.0067 75.206 24.8328 74.3404 23.9672C73.4749 23.1016 72.3009 22.6154 71.0768 22.6154V22.6154ZM31.8461 27.2308V29.5385C31.8461 30.1505 32.0892 30.7375 32.522 31.1702C32.9548 31.603 33.5417 31.8462 34.1538 31.8462C34.7658 31.8462 35.3528 31.603 35.7856 31.1702C36.2183 30.7375 36.4615 30.1505 36.4615 29.5385V27.2308H59.5384V29.5385C59.5384 30.1505 59.7815 30.7375 60.2143 31.1702C60.6471 31.603 61.234 31.8462 61.8461 31.8462C62.4581 31.8462 63.0451 31.603 63.4779 31.1702C63.9106 30.7375 64.1538 30.1505 64.1538 29.5385V27.2308H71.0768V36.4615H24.923V27.2308H31.8461ZM71.0768 73.3846H24.923V41.0769H71.0768V73.3846ZM60.0576 48.7212C60.4779 49.1651 60.7048 49.7577 60.6886 50.3689C60.6724 50.98 60.4143 51.5597 59.9711 51.9808L46.4999 64.6731C46.2905 64.8784 46.0424 65.0401 45.7701 65.1491C45.4978 65.258 45.2066 65.3119 44.9134 65.3077C44.3222 65.3099 43.7534 65.0824 43.3268 64.6731L36.0288 57.75C35.7943 57.5455 35.6037 57.2957 35.4683 57.0156C35.3329 56.7355 35.2555 56.4309 35.2408 56.1202C35.2261 55.8094 35.2744 55.4989 35.3827 55.2073C35.4911 54.9156 35.6573 54.6489 35.8714 54.4232C36.0854 54.1974 36.3429 54.0173 36.6284 53.8936C36.9139 53.7699 37.2214 53.7052 37.5325 53.7034C37.8436 53.7016 38.1518 53.7627 38.4387 53.8831C38.7256 54.0035 38.9852 54.1806 39.2018 54.4038L44.9134 59.8269L56.798 48.6346C57.016 48.423 57.274 48.257 57.5571 48.1466C57.8401 48.0361 58.1423 47.9834 58.446 47.9914C58.7497 47.9995 59.0488 48.0682 59.3255 48.1935C59.6023 48.3188 59.8512 48.4982 60.0576 48.7212V48.7212Z" fill="#CABFB9"/>
<path d="M7.49961 115L13.7996 101H16.3596L22.6796 115H19.9596L14.5396 102.38H15.5796L10.1796 115H7.49961ZM10.3996 111.76L11.0996 109.72H18.6596L19.3596 111.76H10.3996ZM28.9624 119.02C27.9758 119.02 27.0091 118.887 26.0624 118.62C25.1291 118.367 24.3624 117.993 23.7624 117.5L24.8824 115.62C25.3491 116.007 25.9358 116.313 26.6424 116.54C27.3624 116.78 28.0891 116.9 28.8224 116.9C29.9958 116.9 30.8558 116.627 31.4024 116.08C31.9491 115.547 32.2224 114.74 32.2224 113.66V111.76L32.4224 109.34L32.3424 106.92V104.32H34.7224V113.38C34.7224 115.313 34.2291 116.733 33.2424 117.64C32.2558 118.56 30.8291 119.02 28.9624 119.02ZM28.6424 114.52C27.6291 114.52 26.7091 114.307 25.8824 113.88C25.0691 113.44 24.4224 112.833 23.9424 112.06C23.4758 111.287 23.2424 110.38 23.2424 109.34C23.2424 108.313 23.4758 107.413 23.9424 106.64C24.4224 105.867 25.0691 105.267 25.8824 104.84C26.7091 104.413 27.6291 104.2 28.6424 104.2C29.5491 104.2 30.3624 104.38 31.0824 104.74C31.8024 105.1 32.3758 105.66 32.8024 106.42C33.2424 107.18 33.4624 108.153 33.4624 109.34C33.4624 110.527 33.2424 111.507 32.8024 112.28C32.3758 113.04 31.8024 113.607 31.0824 113.98C30.3624 114.34 29.5491 114.52 28.6424 114.52ZM29.0224 112.4C29.6491 112.4 30.2091 112.273 30.7024 112.02C31.1958 111.753 31.5758 111.393 31.8424 110.94C32.1224 110.473 32.2624 109.94 32.2624 109.34C32.2624 108.74 32.1224 108.213 31.8424 107.76C31.5758 107.293 31.1958 106.94 30.7024 106.7C30.2091 106.447 29.6491 106.32 29.0224 106.32C28.3958 106.32 27.8291 106.447 27.3224 106.7C26.8291 106.94 26.4424 107.293 26.1624 107.76C25.8958 108.213 25.7624 108.74 25.7624 109.34C25.7624 109.94 25.8958 110.473 26.1624 110.94C26.4424 111.393 26.8291 111.753 27.3224 112.02C27.8291 112.273 28.3958 112.4 29.0224 112.4ZM43.0291 115.14C41.8425 115.14 40.8025 114.907 39.9091 114.44C39.0291 113.96 38.3425 113.307 37.8491 112.48C37.3691 111.653 37.1291 110.713 37.1291 109.66C37.1291 108.593 37.3625 107.653 37.8291 106.84C38.3091 106.013 38.9625 105.367 39.7891 104.9C40.6291 104.433 41.5825 104.2 42.6491 104.2C43.6891 104.2 44.6158 104.427 45.4291 104.88C46.2425 105.333 46.8825 105.973 47.3491 106.8C47.8158 107.627 48.0491 108.6 48.0491 109.72C48.0491 109.827 48.0425 109.947 48.0291 110.08C48.0291 110.213 48.0225 110.34 48.0091 110.46H39.1091V108.8H46.6891L45.7091 109.32C45.7225 108.707 45.5958 108.167 45.3291 107.7C45.0625 107.233 44.6958 106.867 44.2291 106.6C43.7758 106.333 43.2491 106.2 42.6491 106.2C42.0358 106.2 41.4958 106.333 41.0291 106.6C40.5758 106.867 40.2158 107.24 39.9491 107.72C39.6958 108.187 39.5691 108.74 39.5691 109.38V109.78C39.5691 110.42 39.7158 110.987 40.0091 111.48C40.3025 111.973 40.7158 112.353 41.2491 112.62C41.7825 112.887 42.3958 113.02 43.0891 113.02C43.6891 113.02 44.2291 112.927 44.7091 112.74C45.1891 112.553 45.6158 112.26 45.9891 111.86L47.3291 113.4C46.8491 113.96 46.2425 114.393 45.5091 114.7C44.7891 114.993 43.9625 115.14 43.0291 115.14ZM56.5105 104.2C57.3639 104.2 58.1239 104.367 58.7905 104.7C59.4705 105.033 60.0039 105.547 60.3905 106.24C60.7772 106.92 60.9705 107.8 60.9705 108.88V115H58.4705V109.2C58.4705 108.253 58.2439 107.547 57.7905 107.08C57.3505 106.613 56.7305 106.38 55.9305 106.38C55.3439 106.38 54.8239 106.5 54.3705 106.74C53.9172 106.98 53.5639 107.34 53.3105 107.82C53.0705 108.287 52.9505 108.88 52.9505 109.6V115H50.4505V104.32H52.8305V107.2L52.4105 106.32C52.7839 105.64 53.3239 105.12 54.0305 104.76C54.7505 104.387 55.5772 104.2 56.5105 104.2ZM68.6815 115.14C67.6548 115.14 66.7282 114.913 65.9015 114.46C65.0882 113.993 64.4482 113.353 63.9815 112.54C63.5148 111.727 63.2815 110.767 63.2815 109.66C63.2815 108.553 63.5148 107.593 63.9815 106.78C64.4482 105.967 65.0882 105.333 65.9015 104.88C66.7282 104.427 67.6548 104.2 68.6815 104.2C69.5748 104.2 70.3748 104.4 71.0815 104.8C71.7882 105.187 72.3482 105.78 72.7615 106.58C73.1748 107.38 73.3815 108.407 73.3815 109.66C73.3815 110.9 73.1815 111.927 72.7815 112.74C72.3815 113.54 71.8282 114.14 71.1215 114.54C70.4148 114.94 69.6015 115.14 68.6815 115.14ZM68.9815 113C69.5815 113 70.1148 112.867 70.5815 112.6C71.0615 112.333 71.4415 111.947 71.7215 111.44C72.0148 110.933 72.1615 110.34 72.1615 109.66C72.1615 108.967 72.0148 108.373 71.7215 107.88C71.4415 107.373 71.0615 106.987 70.5815 106.72C70.1148 106.453 69.5815 106.32 68.9815 106.32C68.3815 106.32 67.8415 106.453 67.3615 106.72C66.8948 106.987 66.5148 107.373 66.2215 107.88C65.9415 108.373 65.8015 108.967 65.8015 109.66C65.8015 110.34 65.9415 110.933 66.2215 111.44C66.5148 111.947 66.8948 112.333 67.3615 112.6C67.8415 112.867 68.3815 113 68.9815 113ZM72.2215 115V112.48L72.3215 109.64L72.1215 106.8V100.16H74.6015V115H72.2215ZM84.472 115V112.84L84.332 112.38V108.6C84.332 107.867 84.112 107.3 83.672 106.9C83.232 106.487 82.5653 106.28 81.672 106.28C81.072 106.28 80.4786 106.373 79.892 106.56C79.3186 106.747 78.832 107.007 78.432 107.34L77.452 105.52C78.0253 105.08 78.7053 104.753 79.492 104.54C80.292 104.313 81.1186 104.2 81.972 104.2C83.5186 104.2 84.712 104.573 85.552 105.32C86.4053 106.053 86.832 107.193 86.832 108.74V115H84.472ZM81.112 115.14C80.312 115.14 79.612 115.007 79.012 114.74C78.412 114.46 77.9453 114.08 77.612 113.6C77.292 113.107 77.132 112.553 77.132 111.94C77.132 111.34 77.272 110.8 77.552 110.32C77.8453 109.84 78.3186 109.46 78.972 109.18C79.6253 108.9 80.492 108.76 81.572 108.76H84.672V110.42H81.752C80.8986 110.42 80.3253 110.56 80.032 110.84C79.7386 111.107 79.592 111.44 79.592 111.84C79.592 112.293 79.772 112.653 80.132 112.92C80.492 113.187 80.992 113.32 81.632 113.32C82.2453 113.32 82.792 113.18 83.272 112.9C83.7653 112.62 84.1186 112.207 84.332 111.66L84.752 113.16C84.512 113.787 84.0786 114.273 83.452 114.62C82.8386 114.967 82.0586 115.14 81.112 115.14Z" fill="#CABFB9"/>
</svg>
