<svg width="96" height="120" viewBox="0 0 96 120" fill="none" xmlns="http://www.w3.org/2000/svg">
<path fill-rule="evenodd" clip-rule="evenodd" d="M45.3945 20.9879C45.3945 19.3377 46.7323 18 48.3825 18C50.0326 18 51.3704 19.3377 51.3704 20.9879V75.0121C51.3704 76.6623 50.0326 78 48.3825 78C46.7323 78 45.3945 76.6623 45.3945 75.0121V20.9879ZM33.4429 28.4879C33.4429 26.8377 34.7806 25.5 36.4308 25.5C38.081 25.5 39.4187 26.8377 39.4187 28.4879V67.5121C39.4187 69.1623 38.081 70.5 36.4308 70.5C34.7806 70.5 33.4429 69.1623 33.4429 67.5121V28.4879ZM57.3462 35.9879C57.3462 34.3377 58.6839 33 60.3341 33C61.9843 33 63.322 34.3377 63.322 35.9879V60.0121C63.322 61.6623 61.9843 63 60.3341 63C58.6839 63 57.3462 61.6623 57.3462 60.0121V35.9879ZM21.4912 43.4879C21.4912 41.8377 22.8289 40.5 24.4791 40.5C26.1293 40.5 27.467 41.8377 27.467 43.4879V52.5121C27.467 54.1623 26.1293 55.5 24.4791 55.5C22.8289 55.5 21.4912 54.1623 21.4912 52.5121V43.4879ZM68.5332 43.4879V52.5121C68.5332 54.1623 69.8709 55.5 71.5211 55.5C73.1713 55.5 74.509 54.1623 74.509 52.5121V43.4879C74.509 41.8377 73.1713 40.5 71.5211 40.5C69.8709 40.5 68.5332 41.8377 68.5332 43.4879Z" fill="#CABFB9"/>
<path d="M17.4996 115L23.7996 101H26.3596L32.6796 115H29.9596L24.5396 102.38H25.5796L20.1796 115H17.4996ZM20.3996 111.76L21.0996 109.72H28.6596L29.3596 111.76H20.3996ZM38.5448 115.14C37.6381 115.14 36.8381 114.973 36.1448 114.64C35.4514 114.293 34.9114 113.773 34.5248 113.08C34.1381 112.373 33.9448 111.487 33.9448 110.42V104.32H36.4448V110.08C36.4448 111.04 36.6581 111.76 37.0848 112.24C37.5248 112.707 38.1448 112.94 38.9448 112.94C39.5314 112.94 40.0381 112.82 40.4648 112.58C40.9048 112.34 41.2448 111.98 41.4848 111.5C41.7381 111.02 41.8648 110.427 41.8648 109.72V104.32H44.3648V115H41.9848V112.12L42.4048 113C42.0448 113.693 41.5181 114.227 40.8248 114.6C40.1314 114.96 39.3714 115.14 38.5448 115.14ZM52.158 115.14C51.1314 115.14 50.2047 114.913 49.378 114.46C48.5647 113.993 47.9247 113.353 47.458 112.54C46.9914 111.727 46.758 110.767 46.758 109.66C46.758 108.553 46.9914 107.593 47.458 106.78C47.9247 105.967 48.5647 105.333 49.378 104.88C50.2047 104.427 51.1314 104.2 52.158 104.2C53.0514 104.2 53.8514 104.4 54.558 104.8C55.2647 105.187 55.8247 105.78 56.238 106.58C56.6514 107.38 56.858 108.407 56.858 109.66C56.858 110.9 56.658 111.927 56.258 112.74C55.858 113.54 55.3047 114.14 54.598 114.54C53.8914 114.94 53.078 115.14 52.158 115.14ZM52.458 113C53.058 113 53.5914 112.867 54.058 112.6C54.538 112.333 54.918 111.947 55.198 111.44C55.4914 110.933 55.638 110.34 55.638 109.66C55.638 108.967 55.4914 108.373 55.198 107.88C54.918 107.373 54.538 106.987 54.058 106.72C53.5914 106.453 53.058 106.32 52.458 106.32C51.858 106.32 51.318 106.453 50.838 106.72C50.3714 106.987 49.9914 107.373 49.698 107.88C49.418 108.373 49.278 108.967 49.278 109.66C49.278 110.34 49.418 110.933 49.698 111.44C49.9914 111.947 50.3714 112.333 50.838 112.6C51.318 112.867 51.858 113 52.458 113ZM55.698 115V112.48L55.798 109.64L55.598 106.8V100.16H58.078V115H55.698ZM61.3685 115V104.32H63.8685V115H61.3685ZM62.6285 102.56C62.1618 102.56 61.7752 102.413 61.4685 102.12C61.1752 101.827 61.0285 101.473 61.0285 101.06C61.0285 100.633 61.1752 100.28 61.4685 100C61.7752 99.7067 62.1618 99.56 62.6285 99.56C63.0952 99.56 63.4752 99.7 63.7685 99.98C64.0752 100.247 64.2285 100.587 64.2285 101C64.2285 101.44 64.0818 101.813 63.7885 102.12C63.4952 102.413 63.1085 102.56 62.6285 102.56ZM71.9498 115.14C70.8564 115.14 69.8831 114.907 69.0298 114.44C68.1764 113.96 67.5031 113.307 67.0098 112.48C66.5164 111.653 66.2698 110.713 66.2698 109.66C66.2698 108.593 66.5164 107.653 67.0098 106.84C67.5031 106.013 68.1764 105.367 69.0298 104.9C69.8831 104.433 70.8564 104.2 71.9498 104.2C73.0564 104.2 74.0364 104.433 74.8898 104.9C75.7564 105.367 76.4298 106.007 76.9098 106.82C77.4031 107.633 77.6498 108.58 77.6498 109.66C77.6498 110.713 77.4031 111.653 76.9098 112.48C76.4298 113.307 75.7564 113.96 74.8898 114.44C74.0364 114.907 73.0564 115.14 71.9498 115.14ZM71.9498 113C72.5631 113 73.1098 112.867 73.5898 112.6C74.0698 112.333 74.4431 111.947 74.7098 111.44C74.9898 110.933 75.1298 110.34 75.1298 109.66C75.1298 108.967 74.9898 108.373 74.7098 107.88C74.4431 107.373 74.0698 106.987 73.5898 106.72C73.1098 106.453 72.5698 106.32 71.9698 106.32C71.3564 106.32 70.8098 106.453 70.3298 106.72C69.8631 106.987 69.4898 107.373 69.2098 107.88C68.9298 108.373 68.7898 108.967 68.7898 109.66C68.7898 110.34 68.9298 110.933 69.2098 111.44C69.4898 111.947 69.8631 112.333 70.3298 112.6C70.8098 112.867 71.3498 113 71.9498 113Z" fill="#CABFB9"/>
</svg>
