<svg width="112" height="104" viewBox="0 0 112 104" fill="none" xmlns="http://www.w3.org/2000/svg">
<g filter="url(#filter0_d_521_19121)">
<rect x="11" width="89.0435" height="88" rx="22" fill="#090B0A"/>
</g>
<g filter="url(#filter1_d_521_19121)">
<rect x="11" width="89.0435" height="88" rx="22" fill="url(#paint0_linear_521_19121)" fill-opacity="0.8"/>
<rect x="13" y="2" width="85.0435" height="84" rx="20" stroke="#D9D9D9" stroke-width="4"/>
</g>
<path d="M40.9382 60.667C40.9382 61.7721 41.3771 62.8319 42.1585 63.6133C42.9399 64.3947 43.9997 64.8337 45.1048 64.8337H65.9381C67.0432 64.8337 68.103 64.3947 68.8844 63.6133C69.6658 62.8319 70.1048 61.7721 70.1048 60.667V35.667H74.2715V31.5003H65.9381V27.3337C65.9381 26.2286 65.4992 25.1688 64.7178 24.3874C63.9364 23.606 62.8766 23.167 61.7715 23.167H49.2715C48.1664 23.167 47.1066 23.606 46.3252 24.3874C45.5438 25.1688 45.1048 26.2286 45.1048 27.3337V31.5003H36.7715V35.667H40.9382V60.667ZM49.2715 27.3337H61.7715V31.5003H49.2715V27.3337ZM47.1882 35.667H65.9381V60.667H45.1048V35.667H47.1882Z" fill="#D9D9D9"/>
<path d="M49.2715 39.833H53.4382V56.4997H49.2715V39.833ZM57.6048 39.833H61.7715V56.4997H57.6048V39.833Z" fill="#D9D9D9"/>
<defs>
<filter id="filter0_d_521_19121" x="0" y="0" width="111.044" height="111.375" filterUnits="userSpaceOnUse" color-interpolation-filters="sRGB">
<feFlood flood-opacity="0" result="BackgroundImageFix"/>
<feColorMatrix in="SourceAlpha" type="matrix" values="0 0 0 0 0 0 0 0 0 0 0 0 0 0 0 0 0 0 127 0" result="hardAlpha"/>
<feMorphology radius="1.375" operator="erode" in="SourceAlpha" result="effect1_dropShadow_521_19121"/>
<feOffset dy="12.375"/>
<feGaussianBlur stdDeviation="6.1875"/>
<feColorMatrix type="matrix" values="0 0 0 0 0 0 0 0 0 0 0 0 0 0 0 0 0 0 0.25 0"/>
<feBlend mode="normal" in2="BackgroundImageFix" result="effect1_dropShadow_521_19121"/>
<feBlend mode="normal" in="SourceGraphic" in2="effect1_dropShadow_521_19121" result="shape"/>
</filter>
<filter id="filter1_d_521_19121" x="0" y="0" width="111.044" height="111.375" filterUnits="userSpaceOnUse" color-interpolation-filters="sRGB">
<feFlood flood-opacity="0" result="BackgroundImageFix"/>
<feColorMatrix in="SourceAlpha" type="matrix" values="0 0 0 0 0 0 0 0 0 0 0 0 0 0 0 0 0 0 127 0" result="hardAlpha"/>
<feMorphology radius="1.375" operator="erode" in="SourceAlpha" result="effect1_dropShadow_521_19121"/>
<feOffset dy="12.375"/>
<feGaussianBlur stdDeviation="6.1875"/>
<feColorMatrix type="matrix" values="0 0 0 0 0 0 0 0 0 0 0 0 0 0 0 0 0 0 0.25 0"/>
<feBlend mode="normal" in2="BackgroundImageFix" result="effect1_dropShadow_521_19121"/>
<feBlend mode="normal" in="SourceGraphic" in2="effect1_dropShadow_521_19121" result="shape"/>
</filter>
<linearGradient id="paint0_linear_521_19121" x1="55.5218" y1="0" x2="55.5218" y2="88" gradientUnits="userSpaceOnUse">
<stop stop-color="#1A2433"/>
<stop offset="1" stop-color="#20475E"/>
</linearGradient>
</defs>
</svg>
