<svg width="72" height="72" viewBox="0 0 72 72" fill="none" xmlns="http://www.w3.org/2000/svg">
<g filter="url(#filter0_d_2575_249437)">
<rect x="4" y="4" width="64" height="64" rx="8" fill="white"/>
</g>
<path d="M25.212 47.9998C25.212 48.8035 25.5312 49.5743 26.0995 50.1425C26.6678 50.7108 27.4385 51.0301 28.2422 51.0301H43.3937C44.1974 51.0301 44.9682 50.7108 45.5365 50.1425C46.1048 49.5743 46.424 48.8035 46.424 47.9998V29.818H49.4544V26.7876H43.3937V23.7574C43.3937 22.9537 43.0745 22.1829 42.5062 21.6146C41.9379 21.0463 41.1672 20.7271 40.3635 20.7271H31.2725C30.4688 20.7271 29.6981 21.0463 29.1298 21.6146C28.5615 22.1829 28.2422 22.9537 28.2422 23.7574V26.7876H22.1816V29.818H25.212V47.9998ZM31.2725 23.7574H40.3635V26.7876H31.2725V23.7574ZM29.7574 29.818H43.3937V47.9998H28.2422V29.818H29.7574Z" fill="#8C8C8C"/>
<path d="M31.2725 32.8477H34.3028V44.9689H31.2725V32.8477ZM37.333 32.8477H40.3634V44.9689H37.333V32.8477Z" fill="#8C8C8C"/>
<defs>
<filter id="filter0_d_2575_249437" x="0" y="0" width="72" height="72" filterUnits="userSpaceOnUse" color-interpolation-filters="sRGB">
<feFlood flood-opacity="0" result="BackgroundImageFix"/>
<feColorMatrix in="SourceAlpha" type="matrix" values="0 0 0 0 0 0 0 0 0 0 0 0 0 0 0 0 0 0 127 0" result="hardAlpha"/>
<feOffset/>
<feGaussianBlur stdDeviation="2"/>
<feComposite in2="hardAlpha" operator="out"/>
<feColorMatrix type="matrix" values="0 0 0 0 0 0 0 0 0 0 0 0 0 0 0 0 0 0 0.25 0"/>
<feBlend mode="normal" in2="BackgroundImageFix" result="effect1_dropShadow_2575_249437"/>
<feBlend mode="normal" in="SourceGraphic" in2="effect1_dropShadow_2575_249437" result="shape"/>
</filter>
</defs>
</svg>
