<svg width="96" height="120" viewBox="0 0 96 120" fill="none" xmlns="http://www.w3.org/2000/svg">
<path d="M55.4095 44.8697C55.4095 43.985 56.1266 43.2679 57.0112 43.2679V43.2679C57.8959 43.2679 58.613 43.985 58.613 44.8697V49.1418C58.613 50.0264 57.8959 50.7435 57.0112 50.7435V50.7435C56.1266 50.7435 55.4095 50.0264 55.4095 49.1418V44.8697ZM55.4095 56.6423C55.4095 55.7577 56.1266 55.0406 57.0112 55.0406V55.0406C57.8959 55.0406 58.613 55.7577 58.613 56.6423V60.9144C58.613 61.7991 57.8959 62.5162 57.0112 62.5162V62.5162C56.1266 62.5162 55.4095 61.7991 55.4095 60.9144V56.6423ZM36.3872 37.0212C36.3872 36.1366 37.1043 35.4194 37.989 35.4194V35.4194C38.8736 35.4194 39.5908 36.1366 39.5908 37.0212V41.2933C39.5908 42.1779 38.8736 42.8951 37.989 42.8951V42.8951C37.1043 42.8951 36.3872 42.1779 36.3872 41.2933V37.0212ZM36.3872 48.9312C36.3872 48.0466 37.1043 47.3295 37.989 47.3295V47.3295C38.8736 47.3295 39.5908 48.0466 39.5908 48.9312V53.0856C39.5908 53.9702 38.8736 54.6874 37.989 54.6874V54.6874C37.1043 54.6874 36.3872 53.9702 36.3872 53.0856V48.9312Z" fill="#CABFB9"/>
<path d="M75.0043 68.1727V47.0154C75.0043 45.9294 75.8787 45.046 76.9646 45.0348C78.0664 45.0235 78.9657 45.9135 78.9657 47.0154V69.5781C78.9852 70.0273 78.8631 70.4708 78.6184 70.8392C78.3737 71.2077 78.0202 71.4804 77.613 71.6149L58.289 77.9697C58.0977 78.0103 57.9006 78.0103 57.7093 77.9697C57.4002 77.971 57.0954 77.8942 56.8204 77.7456L38.2887 67.7246L19.699 75.8718C19.4062 75.9985 19.0884 76.0476 18.7734 76.0146C18.4585 75.9816 18.1561 75.8675 17.8927 75.6825C17.6294 75.4974 17.4132 75.247 17.2632 74.9533C17.1131 74.6596 17.0338 74.3315 17.0323 73.9979V32.2842C17.0303 31.8786 17.1433 31.4817 17.3568 31.1442C17.5702 30.8067 17.8744 30.5441 18.2303 30.39L37.535 22.0594C37.7894 21.9354 38.0663 21.8711 38.3466 21.8711C38.6269 21.8711 38.9039 21.9354 39.1582 22.0594L50.6931 28.2266C51.6855 28.7572 52.0579 29.9931 51.524 30.9837C50.9913 31.9719 49.7583 32.3412 48.7701 31.8084L39.6027 26.8663V31.0865C39.6027 31.9403 38.9106 32.6324 38.0568 32.6324C37.203 32.6324 36.5108 31.9403 36.5108 31.0865V26.8459L20.8971 33.6285V70.9427L36.5108 64.1602V59.2028C36.5108 58.349 37.203 57.6569 38.0568 57.6569C38.9106 57.6569 39.6027 58.349 39.6027 59.2028V64.0991L55.8349 72.8777V68.35C55.8349 67.4962 56.527 66.8041 57.3808 66.8041C58.2346 66.8041 58.9267 67.4962 58.9267 68.35V73.4683L75.0043 68.1727Z" fill="#CABFB9"/>
<path d="M66.6631 18.9821L57.9773 34.3336C57.7904 34.6342 57.6869 34.9808 57.6779 35.3366C57.6689 35.6924 57.7546 36.0441 57.9261 36.3541C58.0975 36.6641 58.3481 36.9208 58.6513 37.097C58.9545 37.2732 59.2988 37.3621 59.6476 37.3544H77.0344C77.3741 37.3552 77.7079 37.2645 78.0022 37.0915C78.2965 36.9184 78.5407 36.6691 78.7102 36.3689C78.8798 36.0686 78.9685 35.728 78.9676 35.3815C78.9666 35.035 78.876 34.6949 78.7048 34.3956L70.019 18.9821C69.8477 18.6832 69.6026 18.4352 69.3083 18.2629C69.0139 18.0907 68.6804 18 68.341 18C68.0016 18 67.6682 18.0907 67.3738 18.2629C67.0794 18.4352 66.8344 18.6832 66.6631 18.9821Z" fill="#CABFB9"/>
<path d="M27.3995 115V101H29.5395L35.6595 111.22H34.5395L40.5595 101H42.6995L42.7195 115H40.2595L40.2395 104.86H40.7595L35.6395 113.4H34.4795L29.2795 104.86H29.8795V115H27.3995ZM52.8411 115V112.84L52.7011 112.38V108.6C52.7011 107.867 52.4811 107.3 52.0411 106.9C51.6011 106.487 50.9344 106.28 50.0411 106.28C49.4411 106.28 48.8478 106.373 48.2611 106.56C47.6878 106.747 47.2011 107.007 46.8011 107.34L45.8211 105.52C46.3944 105.08 47.0744 104.753 47.8611 104.54C48.6611 104.313 49.4878 104.2 50.3411 104.2C51.8878 104.2 53.0811 104.573 53.9211 105.32C54.7744 106.053 55.2011 107.193 55.2011 108.74V115H52.8411ZM49.4811 115.14C48.6811 115.14 47.9811 115.007 47.3811 114.74C46.7811 114.46 46.3144 114.08 45.9811 113.6C45.6611 113.107 45.5011 112.553 45.5011 111.94C45.5011 111.34 45.6411 110.8 45.9211 110.32C46.2144 109.84 46.6878 109.46 47.3411 109.18C47.9944 108.9 48.8611 108.76 49.9411 108.76H53.0411V110.42H50.1211C49.2678 110.42 48.6944 110.56 48.4011 110.84C48.1078 111.107 47.9611 111.44 47.9611 111.84C47.9611 112.293 48.1411 112.653 48.5011 112.92C48.8611 113.187 49.3611 113.32 50.0011 113.32C50.6144 113.32 51.1611 113.18 51.6411 112.9C52.1344 112.62 52.4878 112.207 52.7011 111.66L53.1211 113.16C52.8811 113.787 52.4478 114.273 51.8211 114.62C51.2078 114.967 50.4278 115.14 49.4811 115.14ZM64.3295 115.14C63.4629 115.14 62.6695 114.94 61.9495 114.54C61.2429 114.14 60.6762 113.54 60.2495 112.74C59.8362 111.927 59.6295 110.9 59.6295 109.66C59.6295 108.407 59.8295 107.38 60.2295 106.58C60.6429 105.78 61.2029 105.187 61.9095 104.8C62.6162 104.4 63.4229 104.2 64.3295 104.2C65.3829 104.2 66.3095 104.427 67.1095 104.88C67.9229 105.333 68.5629 105.967 69.0295 106.78C69.5095 107.593 69.7495 108.553 69.7495 109.66C69.7495 110.767 69.5095 111.733 69.0295 112.56C68.5629 113.373 67.9229 114.007 67.1095 114.46C66.3095 114.913 65.3829 115.14 64.3295 115.14ZM58.4095 118.88V104.32H60.7895V106.84L60.7095 109.68L60.9095 112.52V118.88H58.4095ZM64.0495 113C64.6495 113 65.1829 112.867 65.6495 112.6C66.1295 112.333 66.5095 111.947 66.7895 111.44C67.0695 110.933 67.2095 110.34 67.2095 109.66C67.2095 108.967 67.0695 108.373 66.7895 107.88C66.5095 107.373 66.1295 106.987 65.6495 106.72C65.1829 106.453 64.6495 106.32 64.0495 106.32C63.4495 106.32 62.9095 106.453 62.4295 106.72C61.9495 106.987 61.5695 107.373 61.2895 107.88C61.0095 108.373 60.8695 108.967 60.8695 109.66C60.8695 110.34 61.0095 110.933 61.2895 111.44C61.5695 111.947 61.9495 112.333 62.4295 112.6C62.9095 112.867 63.4495 113 64.0495 113Z" fill="#CABFB9"/>
</svg>
