<svg width="65" height="64" viewBox="0 0 65 64" fill="none" xmlns="http://www.w3.org/2000/svg">
<rect width="64.7589" height="64" rx="8" fill="#090B0A"/>
<rect x="2" y="2" width="60.7589" height="60" rx="6" fill="url(#paint0_linear_558_29270)" fill-opacity="0.8" stroke="#D9D9D9" stroke-width="4"/>
<path d="M21.7735 44.1212C21.7735 44.9249 22.0927 45.6956 22.661 46.2639C23.2293 46.8322 24.0001 47.1515 24.8038 47.1515H39.9553C40.759 47.1515 41.5297 46.8322 42.098 46.2639C42.6663 45.6956 42.9856 44.9249 42.9856 44.1212V25.9394H46.0159V22.9091H39.9553V19.8788C39.9553 19.0751 39.636 18.3043 39.0677 17.736C38.4994 17.1677 37.7287 16.8484 36.925 16.8484H27.8341C27.0304 16.8484 26.2596 17.1677 25.6913 17.736C25.123 18.3043 24.8038 19.0751 24.8038 19.8788V22.9091H18.7432V25.9394H21.7735V44.1212ZM27.8341 19.8788H36.925V22.9091H27.8341V19.8788ZM26.3189 25.9394H39.9553V44.1212H24.8038V25.9394H26.3189Z" fill="#D9D9D9"/>
<path d="M27.834 28.9697H30.8643V41.0909H27.834V28.9697ZM33.8946 28.9697H36.9249V41.0909H33.8946V28.9697Z" fill="#D9D9D9"/>
<path fill-rule="evenodd" clip-rule="evenodd" d="M56.7589 4L8 4C5.79086 4 4 5.79086 4 8L4 56C4 58.2091 5.79086 60 8 60L56.7589 60C58.9681 60 60.7589 58.2091 60.7589 56L60.7589 8C60.7589 5.79086 58.9681 4 56.7589 4ZM8 0C3.58172 0 0 3.58172 0 8L0 56C0 60.4183 3.58172 64 8 64L56.7589 64C61.1772 64 64.7589 60.4183 64.7589 56L64.7589 8C64.7589 3.58172 61.1772 0 56.7589 0L8 0Z" fill="#D9D9D9"/>
<defs>
<linearGradient id="paint0_linear_558_29270" x1="32.3795" y1="0" x2="32.3795" y2="64" gradientUnits="userSpaceOnUse">
<stop stop-color="#1A2433"/>
<stop offset="1" stop-color="#20475E"/>
</linearGradient>
</defs>
</svg>
